<svg width="343" height="343" viewBox="0 0 343 343" fill="none" xmlns="http://www.w3.org/2000/svg">
<g filter="url(#filter0_d_1_2783)">
<g clip-path="url(#clip0_1_2783)">
<rect x="7" y="3" width="329" height="329" rx="164.5" fill="#E6EBF3"/>
<path d="M356 300.525H7V300.7H356V300.525Z" fill="#EBEBEB"/>
<path d="M321.03 311.756H297.912V311.93H321.03V311.756Z" fill="#EBEBEB"/>
<path d="M238.192 313.655H232.126V313.829H238.192V313.655Z" fill="#EBEBEB"/>
<path d="M297.214 305.279H283.82V305.453H297.214V305.279Z" fill="#EBEBEB"/>
<path d="M73.7637 306.451H43.6171V306.626H73.7637V306.451Z" fill="#EBEBEB"/>
<path d="M84.4013 306.451H79.9829V306.626H84.4013V306.451Z" fill="#EBEBEB"/>
<path d="M164.155 309.397H98.7661V309.571H164.155V309.397Z" fill="#EBEBEB"/>
<path d="M172.426 269.394H37.6492C36.5933 269.393 35.5814 268.972 34.8354 268.225C34.0895 267.477 33.6706 266.465 33.6706 265.409V75.9507C33.6798 74.9009 34.1028 73.8971 34.8477 73.1574C35.5926 72.4177 36.5993 72.0018 37.6492 72H172.426C173.483 72 174.497 72.4199 175.244 73.1673C175.992 73.9148 176.412 74.9285 176.412 75.9856V265.409C176.412 266.466 175.992 267.48 175.244 268.227C174.497 268.975 173.483 269.394 172.426 269.394V269.394ZM37.6492 72.1396C36.6396 72.1414 35.672 72.5438 34.9588 73.2583C34.2456 73.9728 33.8451 74.9411 33.8451 75.9507V265.409C33.8451 266.418 34.2456 267.387 34.9588 268.101C35.672 268.816 36.6396 269.218 37.6492 269.22H172.426C173.436 269.218 174.404 268.816 175.119 268.102C175.833 267.387 176.235 266.419 176.237 265.409V75.9507C176.235 74.9405 175.833 73.9722 175.119 73.2579C174.404 72.5436 173.436 72.1414 172.426 72.1396H37.6492Z" fill="#EBEBEB"/>
<path d="M323.41 269.394H188.627C187.57 269.393 186.557 268.972 185.81 268.225C185.063 267.478 184.643 266.465 184.641 265.409V75.9507C184.652 74.9003 185.077 73.8965 185.823 73.157C186.569 72.4175 187.576 72.0018 188.627 72H323.41C324.459 72.0036 325.464 72.4204 326.207 73.1599C326.951 73.8994 327.373 74.9021 327.382 75.9507V265.409C327.382 266.463 326.964 267.475 326.22 268.222C325.475 268.969 324.465 269.391 323.41 269.394V269.394ZM188.627 72.1396C187.616 72.1414 186.648 72.5436 185.934 73.2579C185.219 73.9722 184.817 74.9405 184.815 75.9507V265.409C184.817 266.419 185.219 267.387 185.934 268.102C186.648 268.816 187.616 269.218 188.627 269.22H323.41C324.421 269.218 325.389 268.816 326.103 268.102C326.817 267.387 327.22 266.419 327.221 265.409V75.9507C327.22 74.9405 326.817 73.9722 326.103 73.2579C325.389 72.5436 324.421 72.1414 323.41 72.1396H188.627Z" fill="#EBEBEB"/>
<path d="M279.22 254.876V231.926H240.746V181.635H233.997V210.455H215.604V202.484H182.484V174.885H176.349V141.158H171.442V174.271H159.792V223.333H137.714V174.271H97.8517V223.333H78.2239V289.574H288.58V260.46L279.22 254.876Z" fill="#E0E0E0"/>
<path d="M182.024 248.594L168.057 219.976H80.8205L66.8535 248.594H77.498V289.776H171.03V248.594H182.024Z" fill="#F0F0F0"/>
<path d="M227.156 252.349H162.654V289.776H227.156V252.349Z" fill="#F0F0F0"/>
<path d="M226.004 254.876H173.019V261.563H226.004V254.876Z" fill="#E6E6E6"/>
<path d="M226.004 264.711H173.019V271.398H226.004V264.711Z" fill="#E6E6E6"/>
<path d="M226.004 274.546H173.019V281.233H226.004V274.546Z" fill="#E6E6E6"/>
<path d="M226.004 284.38H173.019V289.776H226.004V284.38Z" fill="#E6E6E6"/>
<path d="M155.674 248.594H74.706L65.4645 219.976L51.4975 248.594H62.142V289.776H97.042L155.674 254.408V248.594Z" fill="#E6E6E6"/>
<path d="M302.352 126.632H297.633V289.776H302.352V126.632Z" fill="#E6E6E6"/>
<path d="M317.814 141.363C319.41 131.531 312.733 122.266 302.9 120.67C293.068 119.074 283.803 125.751 282.207 135.583C280.611 145.416 287.288 154.68 297.12 156.276C306.953 157.873 316.218 151.196 317.814 141.363Z" fill="#EBEBEB"/>
<path d="M293.913 143.433L294.751 141.667C296.22 142.866 298.062 143.513 299.958 143.496C302.694 143.496 303.866 142.435 303.866 141.06C303.866 137.207 294.297 139.664 294.297 133.773C294.297 131.337 296.195 129.264 300.341 129.264C302.134 129.231 303.898 129.716 305.423 130.66L304.676 132.468C303.381 131.64 301.879 131.194 300.341 131.183C297.661 131.183 296.509 132.307 296.509 133.682C296.509 137.542 306.072 135.127 306.072 140.928C306.072 143.343 304.132 145.416 299.958 145.416C297.549 145.416 295.176 144.592 293.913 143.433Z" fill="white"/>
<path d="M315.547 140.995C316.94 132.415 311.113 124.329 302.532 122.937C293.952 121.544 285.867 127.371 284.474 135.951C283.081 144.532 288.908 152.617 297.488 154.01C306.069 155.403 314.154 149.576 315.547 140.995Z" stroke="white" stroke-width="2" stroke-miterlimit="10"/>
<path d="M181.5 332.047C256.244 332.047 316.835 328.509 316.835 324.145C316.835 319.782 256.244 316.244 181.5 316.244C106.756 316.244 46.1648 319.782 46.1648 324.145C46.1648 328.509 106.756 332.047 181.5 332.047Z" fill="#F5F5F5"/>
<path d="M316.214 290.683V300.246H46.786V290.683C46.7653 290.301 46.8218 289.919 46.9521 289.559C47.0824 289.2 47.2839 288.87 47.5445 288.59C47.8051 288.31 48.1195 288.085 48.4688 287.929C48.8182 287.773 49.1954 287.689 49.578 287.682H313.422C313.804 287.689 314.182 287.773 314.531 287.929C314.88 288.085 315.195 288.31 315.455 288.59C315.716 288.87 315.918 289.2 316.048 289.559C316.178 289.919 316.235 290.301 316.214 290.683Z" fill="#2E353A"/>
<path d="M78.894 287.682H62.142V300.246H78.894V287.682Z" fill="#6278F2"/>
<path d="M110.304 287.682H94.25V300.246H110.304V287.682Z" fill="#6278F2"/>
<path d="M142.412 287.682H125.66V300.246H142.412V287.682Z" fill="#6278F2"/>
<path d="M173.822 287.682H157.768V300.246H173.822V287.682Z" fill="#6278F2"/>
<path d="M205.232 287.682H189.178V300.246H205.232V287.682Z" fill="#6278F2"/>
<path d="M237.34 287.682H220.588V300.246H237.34V287.682Z" fill="#6278F2"/>
<path d="M268.75 287.682H252.696V300.246H268.75V287.682Z" fill="#6278F2"/>
<path d="M300.858 287.682H284.106V300.246H300.858V287.682Z" fill="#6278F2"/>
<g opacity="0.6">
<path opacity="0.6" d="M78.894 287.682H62.142V300.246H78.894V287.682Z" fill="white"/>
<path opacity="0.6" d="M110.304 287.682H94.25V300.246H110.304V287.682Z" fill="white"/>
<path opacity="0.6" d="M142.412 287.682H125.66V300.246H142.412V287.682Z" fill="white"/>
<path opacity="0.6" d="M173.822 287.682H157.768V300.246H173.822V287.682Z" fill="white"/>
<path opacity="0.6" d="M205.232 287.682H189.178V300.246H205.232V287.682Z" fill="white"/>
<path opacity="0.6" d="M237.34 287.682H220.588V300.246H237.34V287.682Z" fill="white"/>
<path opacity="0.6" d="M268.75 287.682H252.696V300.246H268.75V287.682Z" fill="white"/>
<path opacity="0.6" d="M300.858 287.682H284.106V300.246H300.858V287.682Z" fill="white"/>
</g>
<path opacity="0.1" d="M316.214 290.683V300.246H46.786V290.683C46.7653 290.301 46.8218 289.919 46.9521 289.559C47.0824 289.2 47.2839 288.87 47.5445 288.59C47.8051 288.31 48.1195 288.085 48.4688 287.929C48.8182 287.773 49.1954 287.689 49.578 287.682H313.422C313.804 287.689 314.182 287.773 314.531 287.929C314.88 288.085 315.195 288.31 315.455 288.59C315.716 288.87 315.918 289.2 316.048 289.559C316.178 289.919 316.235 290.301 316.214 290.683Z" fill="white"/>
<path d="M120.076 101.763V202.973C120.049 203.432 119.845 203.863 119.506 204.174C119.167 204.485 118.721 204.653 118.261 204.641H57.7236C56.8581 204.641 56.558 203.978 56.558 203.112V101.623C56.558 100.876 56.7604 99.92 57.5073 99.92H72.612C72.8356 99.9551 73.0451 100.051 73.2176 100.198C73.39 100.344 73.5186 100.536 73.5892 100.751L74.2104 102.147C74.2963 102.328 74.4367 102.478 74.6119 102.575C74.787 102.673 74.9883 102.713 75.1876 102.691H100.951C101.384 102.691 101.767 102.628 101.928 102.23L102.556 100.632C102.634 100.435 102.766 100.264 102.939 100.14C103.111 100.016 103.315 99.9448 103.526 99.934H118.471C118.908 100.006 119.307 100.228 119.6 100.561C119.893 100.895 120.061 101.319 120.076 101.763V101.763Z" fill="#26BD87"/>
<path opacity="0.2" d="M120.076 101.763V202.973C120.049 203.432 119.845 203.863 119.506 204.174C119.167 204.485 118.721 204.653 118.261 204.641H57.7236C56.8581 204.641 56.558 203.978 56.558 203.112V101.623C56.558 100.876 56.7604 99.92 57.5073 99.92H72.612C72.8356 99.9551 73.0451 100.051 73.2176 100.198C73.39 100.344 73.5186 100.536 73.5892 100.751L74.2104 102.147C74.2963 102.328 74.4367 102.478 74.6119 102.575C74.787 102.673 74.9883 102.713 75.1876 102.691H100.951C101.384 102.691 101.767 102.628 101.928 102.23L102.556 100.632C102.634 100.435 102.766 100.264 102.939 100.14C103.111 100.016 103.315 99.9448 103.526 99.934H118.471C118.908 100.006 119.307 100.228 119.6 100.561C119.893 100.895 120.061 101.319 120.076 101.763V101.763Z" fill="white"/>
<path opacity="0.4" d="M117.64 111.081H59.0079V183.673H117.64V111.081Z" fill="white"/>
<path d="M106.116 120.023C105.755 119.66 105.327 119.373 104.855 119.177C104.383 118.981 103.877 118.88 103.366 118.88C102.855 118.88 102.349 118.981 101.877 119.177C101.405 119.373 100.976 119.66 100.616 120.023C100.254 120.383 99.9662 120.812 99.7701 121.284C99.574 121.756 99.4731 122.262 99.4731 122.773C99.4731 123.284 99.574 123.79 99.7701 124.262C99.9662 124.734 100.254 125.162 100.616 125.523L103.366 128.273L106.116 125.523C106.844 124.793 107.253 123.804 107.253 122.773C107.253 121.742 106.844 120.753 106.116 120.023V120.023ZM104.72 124.099C104.367 124.45 103.889 124.648 103.39 124.648C102.892 124.648 102.414 124.45 102.061 124.099V124.099C101.709 123.747 101.512 123.27 101.512 122.773C101.512 122.275 101.709 121.798 102.061 121.446V121.446C102.414 121.095 102.892 120.897 103.39 120.897C103.889 120.897 104.367 121.095 104.72 121.446V121.446C105.071 121.798 105.268 122.275 105.268 122.773C105.268 123.27 105.071 123.747 104.72 124.099Z" fill="#26BD87"/>
<path d="M69.7641 169.183C69.034 168.455 68.0451 168.046 67.014 168.046C65.983 168.046 64.994 168.455 64.2639 169.183C63.5359 169.913 63.1271 170.902 63.1271 171.933C63.1271 172.964 63.5359 173.953 64.2639 174.683L67.028 177.433L69.7781 174.683C70.1393 174.321 70.4256 173.892 70.6205 173.42C70.8154 172.947 70.9151 172.441 70.9138 171.93C70.9125 171.419 70.8102 170.913 70.6129 170.442C70.4157 169.97 70.1272 169.542 69.7641 169.183V169.183ZM68.3681 173.259C68.1948 173.435 67.9883 173.574 67.7606 173.669C67.533 173.764 67.2887 173.813 67.0419 173.813C66.7952 173.813 66.5509 173.764 66.3233 173.669C66.0956 173.574 65.8891 173.435 65.7157 173.259V173.259C65.3645 172.907 65.1673 172.43 65.1673 171.933C65.1673 171.435 65.3645 170.959 65.7157 170.607V170.607C66.0678 170.255 66.5447 170.058 67.0419 170.058C67.5392 170.058 68.0161 170.255 68.3681 170.607C68.7157 170.962 68.9079 171.441 68.9027 171.938C68.8975 172.436 68.6952 172.911 68.3402 173.259H68.3681Z" fill="#26BD87"/>
<path d="M109.215 111.088H105.648L109.39 129.138L91.7023 133.536L87.0536 111.088H83.4798L88.31 134.38L69.5826 139.008L63.7962 111.088H60.2504L66.2532 139.874L59.0079 141.688V145.29L67.028 143.287L70.6506 160.932L59.0359 163.836V167.438L71.3625 164.352L75.2783 183.68H78.8451L74.6571 163.522L79.6269 162.286C79.7925 162.241 79.9657 162.232 80.1353 162.258C80.3049 162.285 80.467 162.347 80.611 162.44C80.7561 162.529 80.8816 162.647 80.98 162.786C81.0783 162.925 81.1475 163.083 81.1834 163.25L85.6506 183.68H89.2174L84.5966 162.51C84.4605 161.886 84.2007 161.296 83.8325 160.774C83.4644 160.253 82.9954 159.811 82.4533 159.473C81.9112 159.136 81.307 158.911 80.6765 158.812C80.0459 158.712 79.4018 158.74 78.7823 158.894L73.9451 160.102L70.2876 142.449L89.015 137.8L90.6553 145.716C90.8696 146.763 91.4111 147.714 92.2015 148.433C92.9919 149.152 93.9904 149.601 95.0527 149.715L114.087 151.809L117.633 168.91V148.668L95.4366 146.211C95.1077 146.174 94.799 146.034 94.5546 145.811C94.3102 145.588 94.1425 145.293 94.0755 144.969L92.4003 136.914L117.633 130.632V127.03L112.747 128.238L109.215 111.088Z" fill="#26BD87"/>
<path d="M101.265 197.752H75.404C74.2149 197.752 73.0743 197.28 72.2328 196.44C71.3914 195.6 70.9177 194.46 70.9158 193.271C70.9158 192.08 71.3887 190.939 72.2304 190.097C73.0721 189.255 74.2136 188.782 75.404 188.782H101.279C102.468 188.784 103.608 189.258 104.448 190.099C105.288 190.941 105.76 192.081 105.76 193.271V193.271C105.759 193.86 105.642 194.443 105.416 194.988C105.189 195.532 104.858 196.026 104.441 196.442C104.023 196.858 103.528 197.188 102.983 197.413C102.438 197.638 101.854 197.753 101.265 197.752Z" fill="#26BD87"/>
<path d="M76.2346 193.508C76.2165 193.023 76.3437 192.544 76.5998 192.131C76.856 191.719 77.2294 191.393 77.6722 191.194C78.115 190.996 78.6071 190.934 79.0852 191.017C79.5634 191.1 80.0059 191.324 80.3559 191.66C80.706 191.996 80.9478 192.429 81.0501 192.903C81.1525 193.378 81.1109 193.872 80.9305 194.322C80.7502 194.773 80.4394 195.159 80.038 195.432C79.6366 195.705 79.1629 195.851 78.6776 195.853C78.361 195.868 78.0446 195.819 77.7478 195.708C77.451 195.596 77.18 195.426 76.9513 195.206C76.7227 194.987 76.5412 194.723 76.418 194.431C76.2947 194.139 76.2323 193.825 76.2346 193.508V193.508ZM80.4226 193.508C80.4254 193.155 80.3232 192.809 80.129 192.514C79.9348 192.22 79.6573 191.989 79.3319 191.853C79.0066 191.716 78.6479 191.679 78.3015 191.747C77.9551 191.815 77.6367 191.984 77.3867 192.233C77.1366 192.482 76.9663 192.8 76.8972 193.146C76.8282 193.492 76.8636 193.851 76.999 194.177C77.1344 194.503 77.3636 194.781 77.6575 194.976C77.9514 195.172 78.2968 195.275 78.6497 195.274C78.8863 195.285 79.1228 195.248 79.3442 195.164C79.5656 195.08 79.7673 194.951 79.9364 194.785C80.1056 194.619 80.2386 194.42 80.327 194.2C80.4155 193.98 80.4575 193.745 80.4505 193.508H80.4226Z" fill="white"/>
<path d="M85.176 195.804L84.1918 194.408H83.9056H82.7679V195.804H82.1118V191.219H83.9056C85.0922 191.219 85.8181 191.819 85.8181 192.817C85.8315 193.135 85.7396 193.45 85.5567 193.711C85.3738 193.972 85.11 194.165 84.806 194.262L85.8949 195.804H85.176ZM85.176 192.817C85.176 192.161 84.7362 191.784 83.8986 191.784H82.7818V193.878H83.8986C84.7153 193.85 85.176 193.452 85.176 192.817Z" fill="white"/>
<path d="M86.8651 191.218H88.7986C89.1103 191.201 89.4223 191.248 89.7155 191.355C90.0086 191.463 90.2768 191.629 90.5036 191.843C90.7303 192.058 90.911 192.317 91.0344 192.603C91.1579 192.89 91.2216 193.199 91.2216 193.511C91.2216 193.824 91.1579 194.133 91.0344 194.419C90.911 194.706 90.7303 194.965 90.5036 195.179C90.2768 195.394 90.0086 195.56 89.7155 195.668C89.4223 195.775 89.1103 195.822 88.7986 195.804H86.8651V191.218ZM88.7567 195.232C88.9961 195.254 89.2375 195.225 89.4653 195.148C89.6931 195.071 89.9024 194.948 90.0798 194.786C90.2573 194.623 90.399 194.426 90.496 194.206C90.593 193.986 90.643 193.748 90.643 193.508C90.643 193.267 90.593 193.03 90.496 192.81C90.399 192.59 90.2573 192.392 90.0798 192.23C89.9024 192.068 89.6931 191.944 89.4653 191.868C89.2375 191.791 88.9961 191.762 88.7567 191.784H87.5212V195.232H88.7567Z" fill="white"/>
<path d="M95.5971 195.232V195.804H92.2747V191.219H95.5064V191.784H92.9238V193.18H95.2272V193.738H92.9238V195.218L95.5971 195.232Z" fill="white"/>
<path d="M99.7223 195.804L98.7311 194.408H98.445H97.3142V195.804H96.6581V191.219H98.438C99.6316 191.219 100.351 191.819 100.351 192.817C100.365 193.135 100.275 193.449 100.093 193.71C99.9116 193.971 99.6487 194.165 99.3454 194.262L100.427 195.804H99.7223ZM99.7223 192.817C99.7223 192.161 99.2826 191.784 98.445 191.784H97.3351V193.878H98.438C99.2616 193.85 99.7014 193.452 99.7014 192.817H99.7223Z" fill="white"/>
<path opacity="0.2" d="M120.076 143.65V202.777C120.074 203.266 119.879 203.733 119.534 204.078C119.189 204.424 118.721 204.618 118.233 204.62H107.282V148.187C107.282 146.983 107.76 145.829 108.611 144.979C109.461 144.128 110.615 143.65 111.819 143.65H120.076Z" fill="black"/>
<path d="M175.916 156.905V258.115C175.887 258.574 175.681 259.005 175.342 259.316C175.002 259.627 174.555 259.795 174.094 259.783H113.557C112.691 259.783 112.398 259.12 112.398 258.254V156.765C112.398 156.018 112.586 155.062 113.34 155.062H128.452C128.676 155.097 128.885 155.193 129.058 155.34C129.23 155.486 129.359 155.678 129.429 155.893L130.05 157.289C130.136 157.47 130.277 157.62 130.452 157.717C130.627 157.815 130.828 157.855 131.028 157.833H156.791C157.217 157.833 157.607 157.77 157.768 157.372L158.396 155.774C158.468 155.57 158.599 155.392 158.771 155.262C158.944 155.131 159.151 155.055 159.366 155.041H174.283C174.73 155.111 175.139 155.336 175.437 155.677C175.736 156.017 175.905 156.452 175.916 156.905V156.905Z" fill="#EB7272"/>
<path opacity="0.2" d="M175.916 156.905V258.115C175.887 258.574 175.681 259.005 175.342 259.316C175.002 259.627 174.555 259.795 174.094 259.783H113.557C112.691 259.783 112.398 259.12 112.398 258.254V156.765C112.398 156.018 112.586 155.062 113.34 155.062H128.452C128.676 155.097 128.885 155.193 129.058 155.34C129.23 155.486 129.359 155.678 129.429 155.893L130.05 157.289C130.136 157.47 130.277 157.62 130.452 157.717C130.627 157.815 130.828 157.855 131.028 157.833H156.791C157.217 157.833 157.607 157.77 157.768 157.372L158.396 155.774C158.468 155.57 158.599 155.392 158.771 155.262C158.944 155.131 159.151 155.055 159.366 155.041H174.283C174.73 155.111 175.139 155.336 175.437 155.677C175.736 156.017 175.905 156.452 175.916 156.905V156.905Z" fill="white"/>
<path d="M173.466 166.16H114.366V184.203H173.466V166.16Z" fill="#EB7272"/>
<path opacity="0.4" d="M173.466 185.599H114.366V254.408H173.466V185.599Z" fill="white"/>
<g opacity="0.4">
<path opacity="0.4" d="M120.474 170.704V171.814H122.044V172.198H120.474V173.468H120.027V170.334H122.233V170.725L120.474 170.704Z" fill="white"/>
<path opacity="0.4" d="M124.962 173.447L124.264 172.512H123.294V173.468H122.868V170.334H124.089C124.899 170.334 125.395 170.746 125.395 171.423C125.406 171.643 125.343 171.859 125.216 172.039C125.09 172.219 124.907 172.351 124.697 172.414L125.437 173.468L124.962 173.447ZM124.962 171.402C124.962 170.955 124.662 170.704 124.089 170.704H123.329V172.1H124.089C124.648 172.114 124.962 171.849 124.962 171.402Z" fill="white"/>
<path opacity="0.4" d="M125.862 171.877C125.85 171.544 125.937 171.216 126.112 170.933C126.288 170.651 126.544 170.427 126.847 170.292C127.151 170.156 127.488 170.113 127.816 170.171C128.143 170.228 128.447 170.381 128.686 170.612C128.926 170.843 129.091 171.14 129.161 171.465C129.23 171.79 129.201 172.129 129.077 172.437C128.953 172.746 128.739 173.01 128.464 173.196C128.188 173.382 127.863 173.482 127.531 173.482C127.314 173.493 127.098 173.459 126.895 173.383C126.692 173.306 126.506 173.19 126.35 173.039C126.194 172.889 126.07 172.708 125.986 172.508C125.902 172.309 125.86 172.094 125.862 171.877V171.877ZM128.745 171.877C128.748 171.634 128.678 171.397 128.546 171.194C128.413 170.991 128.223 170.832 127.999 170.738C127.776 170.643 127.529 170.618 127.291 170.664C127.053 170.71 126.834 170.826 126.662 170.997C126.491 171.168 126.373 171.386 126.326 171.624C126.278 171.861 126.303 172.108 126.396 172.332C126.489 172.556 126.647 172.747 126.849 172.881C127.051 173.015 127.288 173.086 127.531 173.084C127.691 173.09 127.851 173.063 128.001 173.004C128.15 172.946 128.286 172.857 128.4 172.744C128.514 172.631 128.603 172.495 128.662 172.346C128.722 172.197 128.75 172.037 128.745 171.877Z" fill="white"/>
<path opacity="0.4" d="M132.78 173.447V171.165L131.649 173.063H131.439L130.309 171.179V173.447H129.848V170.313H130.218L131.523 172.512L132.814 170.313H133.177V173.447H132.78Z" fill="white"/>
</g>
<path d="M161.363 227.033C161.363 229.434 153.552 231.381 143.913 231.381C134.273 231.381 126.463 229.434 126.463 227.033C126.463 224.632 134.273 222.691 143.913 222.691C153.552 222.691 161.363 224.632 161.363 227.033Z" fill="#EB7272"/>
<path opacity="0.2" d="M161.363 227.033C161.363 229.434 153.552 231.381 143.913 231.381C134.273 231.381 126.463 229.434 126.463 227.033C126.463 224.632 134.273 222.691 143.913 222.691C153.552 222.691 161.363 224.632 161.363 227.033Z" fill="black"/>
<path d="M153.28 196.705C150.794 194.224 147.425 192.831 143.913 192.831C140.4 192.831 137.032 194.224 134.545 196.705V196.705C132.067 199.191 130.675 202.558 130.675 206.068C130.675 209.579 132.067 212.946 134.545 215.432L143.913 224.799L153.28 215.432C155.758 212.946 157.15 209.579 157.15 206.068C157.15 202.558 155.758 199.191 153.28 196.705V196.705ZM148.436 210.588C147.841 211.186 147.135 211.661 146.356 211.986C145.577 212.31 144.742 212.477 143.899 212.477C143.055 212.477 142.22 212.31 141.441 211.986C140.663 211.661 139.956 211.186 139.362 210.588C138.762 209.994 138.287 209.287 137.962 208.509C137.637 207.73 137.47 206.895 137.47 206.051C137.47 205.207 137.637 204.372 137.962 203.593C138.287 202.814 138.762 202.108 139.362 201.514V201.514C139.956 200.915 140.663 200.44 141.441 200.116C142.22 199.792 143.055 199.625 143.899 199.625C144.742 199.625 145.577 199.792 146.356 200.116C147.135 200.44 147.841 200.915 148.436 201.514C149.035 202.108 149.511 202.814 149.835 203.593C150.16 204.372 150.327 205.207 150.327 206.051C150.327 206.895 150.16 207.73 149.835 208.509C149.511 209.287 149.035 209.994 148.436 210.588V210.588Z" fill="#EB7272"/>
<path d="M151.263 247.359H136.563C135.974 247.359 135.391 247.244 134.847 247.019C134.303 246.794 133.808 246.464 133.392 246.048C132.976 245.632 132.646 245.137 132.421 244.593C132.196 244.049 132.081 243.466 132.082 242.877V242.877C132.081 242.289 132.196 241.706 132.421 241.161C132.646 240.617 132.976 240.123 133.392 239.707C133.808 239.29 134.303 238.96 134.847 238.735C135.391 238.511 135.974 238.395 136.563 238.396H151.263C151.851 238.395 152.435 238.511 152.979 238.735C153.523 238.96 154.017 239.29 154.433 239.707C154.85 240.123 155.18 240.617 155.405 241.161C155.629 241.706 155.745 242.289 155.744 242.877V242.877C155.745 243.466 155.629 244.049 155.405 244.593C155.18 245.137 154.85 245.632 154.433 246.048C154.017 246.464 153.523 246.794 152.979 247.019C152.435 247.244 151.851 247.359 151.263 247.359V247.359Z" fill="#EB7272"/>
<path d="M138.036 244.888L138.28 244.378C138.705 244.726 139.238 244.914 139.788 244.909C140.583 244.909 140.925 244.601 140.925 244.211C140.925 243.094 138.133 243.799 138.133 242.117C138.133 241.419 138.685 240.811 139.885 240.811C140.407 240.8 140.921 240.941 141.365 241.216L141.149 241.74C140.772 241.497 140.334 241.366 139.885 241.363C139.11 241.363 138.775 241.691 138.775 242.096C138.775 243.212 141.567 242.514 141.567 244.19C141.567 244.888 141.002 245.495 139.788 245.495C139.15 245.505 138.53 245.29 138.036 244.888Z" fill="white"/>
<path d="M145.846 244.839V245.411H142.517V240.825H145.755V241.398H143.173V242.794H145.476V243.345H143.173V244.825L145.846 244.839Z" fill="white"/>
<path d="M147.815 241.398H146.244V240.825H150.034V241.398H148.464V245.411H147.815V241.398Z" fill="white"/>
<path opacity="0.2" d="M175.916 202.756V156.905C175.914 156.417 175.719 155.949 175.374 155.604C175.029 155.259 174.561 155.064 174.073 155.062H163.122V198.219C163.122 199.423 163.6 200.577 164.451 201.427C165.301 202.278 166.455 202.756 167.659 202.756H175.916Z" fill="black"/>
<g opacity="0.4">
<path opacity="0.4" d="M120.648 177.684H119.573V177.3H122.17V177.684H121.095V180.427H120.655L120.648 177.684Z" fill="white"/>
<path opacity="0.4" d="M122.351 178.864C122.338 178.531 122.423 178.202 122.598 177.919C122.773 177.635 123.028 177.411 123.331 177.274C123.635 177.137 123.972 177.093 124.3 177.15C124.628 177.206 124.932 177.359 125.172 177.589C125.413 177.82 125.579 178.117 125.649 178.442C125.719 178.767 125.69 179.106 125.566 179.415C125.442 179.724 125.229 179.989 124.953 180.175C124.678 180.362 124.353 180.462 124.02 180.462C123.804 180.473 123.588 180.439 123.385 180.363C123.183 180.287 122.998 180.171 122.842 180.022C122.686 179.872 122.562 179.692 122.477 179.493C122.393 179.294 122.35 179.08 122.351 178.864V178.864ZM125.234 178.864C125.238 178.621 125.17 178.383 125.038 178.179C124.906 177.975 124.716 177.815 124.493 177.72C124.27 177.624 124.023 177.597 123.785 177.643C123.546 177.688 123.327 177.803 123.154 177.974C122.981 178.145 122.864 178.363 122.816 178.601C122.767 178.839 122.791 179.086 122.884 179.31C122.977 179.534 123.135 179.726 123.337 179.86C123.539 179.995 123.777 180.066 124.02 180.064C124.179 180.069 124.338 180.041 124.487 179.983C124.635 179.924 124.77 179.836 124.884 179.724C124.998 179.612 125.087 179.478 125.147 179.33C125.208 179.182 125.237 179.023 125.234 178.864Z" fill="white"/>
</g>
<path opacity="0.4" d="M166.004 169.099H137.666C137.327 169.098 136.991 169.164 136.678 169.293C136.365 169.422 136.08 169.611 135.84 169.851C135.6 170.09 135.41 170.374 135.28 170.687C135.15 171 135.083 171.336 135.083 171.674C135.082 172.014 135.148 172.35 135.278 172.664C135.407 172.978 135.597 173.263 135.837 173.503C136.077 173.743 136.362 173.933 136.676 174.062C136.99 174.192 137.326 174.258 137.666 174.257H166.004C166.344 174.258 166.68 174.192 166.994 174.062C167.308 173.933 167.593 173.743 167.833 173.503C168.073 173.263 168.263 172.978 168.392 172.664C168.522 172.35 168.588 172.014 168.587 171.674V171.674C168.587 171.336 168.52 171 168.39 170.687C168.26 170.374 168.07 170.09 167.83 169.851C167.59 169.611 167.306 169.422 166.992 169.293C166.679 169.164 166.343 169.098 166.004 169.099V169.099Z" fill="white"/>
<path opacity="0.4" d="M166.004 176.086H137.666C137.327 176.085 136.991 176.151 136.678 176.28C136.365 176.409 136.08 176.598 135.84 176.838C135.6 177.077 135.41 177.361 135.28 177.674C135.15 177.987 135.083 178.323 135.083 178.661V178.661C135.083 179.346 135.355 180.003 135.839 180.488C136.324 180.972 136.981 181.244 137.666 181.244H166.004C166.689 181.244 167.346 180.972 167.831 180.488C168.315 180.003 168.587 179.346 168.587 178.661V178.661C168.587 178.323 168.52 177.987 168.39 177.674C168.26 177.361 168.07 177.077 167.83 176.838C167.59 176.598 167.305 176.409 166.992 176.28C166.679 176.151 166.343 176.085 166.004 176.086V176.086Z" fill="white"/>
<path d="M231.058 84.3127V185.523C231.084 185.731 231.065 185.942 231.003 186.143C230.941 186.343 230.838 186.528 230.699 186.686C230.561 186.843 230.391 186.97 230.2 187.057C230.009 187.144 229.802 187.19 229.592 187.191H169.055C168.854 187.194 168.654 187.156 168.468 187.08C168.282 187.004 168.114 186.891 167.972 186.749C167.831 186.606 167.72 186.436 167.645 186.25C167.571 186.063 167.535 185.863 167.54 185.662V84.1731C167.54 83.4262 168.091 82.47 168.838 82.47H183.971C184.195 82.5042 184.405 82.6 184.577 82.7467C184.75 82.8934 184.878 83.0852 184.948 83.3006L185.576 84.6966C185.661 84.8772 185.8 85.0268 185.974 85.1244C186.148 85.2221 186.348 85.2628 186.547 85.241H212.317C212.742 85.241 213.126 85.1782 213.287 84.7803L213.915 83.1819C213.994 82.9841 214.128 82.8131 214.301 82.6893C214.474 82.5656 214.68 82.4943 214.892 82.4839H229.809C230.632 82.47 231.058 83.4821 231.058 84.3127Z" fill="#FBDD91"/>
<path opacity="0.2" d="M231.058 84.3127V185.523C231.084 185.731 231.065 185.942 231.003 186.143C230.941 186.343 230.838 186.528 230.699 186.686C230.561 186.843 230.391 186.97 230.2 187.057C230.009 187.144 229.802 187.19 229.592 187.191H169.055C168.854 187.194 168.654 187.156 168.468 187.08C168.282 187.004 168.114 186.891 167.972 186.749C167.831 186.606 167.72 186.436 167.645 186.25C167.571 186.063 167.535 185.863 167.54 185.662V84.1731C167.54 83.4262 168.091 82.47 168.838 82.47H183.971C184.195 82.5042 184.405 82.6 184.577 82.7467C184.75 82.8934 184.878 83.0852 184.948 83.3006L185.576 84.6966C185.661 84.8772 185.8 85.0268 185.974 85.1244C186.148 85.2221 186.348 85.2628 186.547 85.241H212.317C212.742 85.241 213.126 85.1782 213.287 84.7803L213.915 83.1819C213.994 82.9841 214.128 82.8131 214.301 82.6893C214.474 82.5656 214.68 82.4943 214.892 82.4839H229.809C230.632 82.47 231.058 83.4821 231.058 84.3127Z" fill="white"/>
<path d="M199.027 149.827C211.844 149.827 222.235 139.436 222.235 126.619C222.235 113.801 211.844 103.41 199.027 103.41C186.209 103.41 175.818 113.801 175.818 126.619C175.818 139.436 186.209 149.827 199.027 149.827Z" fill="#FBDD91"/>
<path opacity="0.4" d="M222.333 126.618C222.333 131.209 220.972 135.696 218.422 139.512C215.871 143.329 212.247 146.304 208.006 148.06C203.765 149.817 199.099 150.277 194.597 149.381C190.095 148.485 185.959 146.275 182.714 143.029C179.468 139.784 177.257 135.648 176.362 131.146C175.466 126.644 175.926 121.978 177.683 117.737C179.439 113.496 182.414 109.871 186.231 107.321C190.047 104.771 194.534 103.41 199.124 103.41C202.174 103.404 205.194 104.001 208.013 105.165C210.831 106.33 213.391 108.039 215.548 110.195C217.704 112.351 219.413 114.912 220.578 117.73C221.742 120.549 222.338 123.569 222.333 126.618Z" fill="white"/>
<path d="M202.614 119.275H198.622L199.201 117.621H202.035L202.614 119.275Z" fill="#FBDD91"/>
<path d="M217.196 134.122H179.315L180.251 128.07C180.311 127.67 180.501 127.301 180.791 127.019C181.081 126.737 181.455 126.557 181.856 126.507L189.38 125.544L193.924 120.336C194.258 119.949 194.713 119.685 195.216 119.59C196.989 119.317 198.783 119.202 200.576 119.248C202.332 119.219 204.087 119.331 205.825 119.583C206.523 119.687 207.312 120.106 207.312 120.72C207.312 120.72 207.361 120.769 207.368 120.79L209.462 125.209L209.406 125.271L209.846 125.565L215.604 126.556C215.858 126.594 216.092 126.713 216.272 126.896C216.452 127.078 216.568 127.314 216.602 127.568L217.196 134.122Z" fill="#FBDD91"/>
<path opacity="0.2" d="M217.196 134.122H179.315L180.251 128.07C180.311 127.67 180.501 127.301 180.791 127.019C181.081 126.737 181.455 126.557 181.856 126.507L189.38 125.544L193.924 120.336C194.258 119.949 194.713 119.685 195.216 119.59C196.989 119.317 198.783 119.202 200.576 119.248C202.332 119.219 204.087 119.331 205.825 119.583C206.523 119.687 207.312 120.106 207.312 120.72C207.312 120.72 207.361 120.769 207.368 120.79L209.462 125.209L209.406 125.271L209.846 125.565L215.604 126.556C215.858 126.594 216.092 126.713 216.272 126.896C216.452 127.078 216.568 127.314 216.602 127.568L217.196 134.122Z" fill="black"/>
<path d="M189.939 134.289C189.939 134.936 189.747 135.568 189.388 136.105C189.028 136.642 188.518 137.061 187.921 137.308C187.323 137.555 186.666 137.619 186.032 137.493C185.398 137.366 184.816 137.054 184.36 136.597C183.903 136.139 183.593 135.557 183.467 134.922C183.342 134.288 183.408 133.631 183.656 133.035C183.904 132.438 184.324 131.928 184.862 131.57C185.4 131.212 186.033 131.021 186.679 131.023C187.108 131.023 187.532 131.107 187.928 131.272C188.324 131.436 188.684 131.677 188.986 131.98C189.289 132.283 189.529 132.644 189.693 133.04C189.856 133.436 189.94 133.861 189.939 134.289V134.289Z" fill="#2E353A"/>
<path d="M188.305 134.289C188.305 134.613 188.209 134.929 188.03 135.198C187.85 135.466 187.594 135.676 187.296 135.799C186.997 135.923 186.668 135.954 186.351 135.891C186.034 135.827 185.743 135.671 185.515 135.442C185.287 135.213 185.132 134.921 185.069 134.604C185.007 134.287 185.04 133.958 185.165 133.66C185.29 133.361 185.5 133.107 185.77 132.928C186.039 132.749 186.356 132.655 186.679 132.656C186.893 132.656 187.105 132.698 187.303 132.781C187.501 132.863 187.68 132.983 187.832 133.135C187.983 133.287 188.102 133.467 188.184 133.665C188.265 133.863 188.306 134.075 188.305 134.289V134.289Z" fill="#FBDD91"/>
<path d="M213.489 134.289C213.488 134.934 213.296 135.563 212.937 136.099C212.578 136.634 212.068 137.05 211.472 137.296C210.877 137.542 210.221 137.605 209.59 137.479C208.958 137.352 208.377 137.041 207.922 136.585C207.467 136.129 207.157 135.548 207.032 134.916C206.907 134.284 206.972 133.629 207.219 133.033C207.466 132.438 207.884 131.93 208.419 131.572C208.955 131.214 209.585 131.023 210.23 131.023C210.658 131.023 211.083 131.107 211.479 131.272C211.875 131.436 212.234 131.677 212.537 131.98C212.84 132.283 213.08 132.644 213.243 133.04C213.407 133.436 213.49 133.861 213.489 134.289V134.289Z" fill="#2E353A"/>
<path d="M211.863 134.289C211.863 134.613 211.767 134.928 211.588 135.197C211.408 135.465 211.153 135.675 210.855 135.798C210.556 135.922 210.228 135.954 209.911 135.891C209.594 135.828 209.303 135.673 209.075 135.444C208.846 135.216 208.691 134.925 208.628 134.608C208.565 134.291 208.597 133.963 208.721 133.664C208.844 133.366 209.054 133.111 209.322 132.931C209.591 132.752 209.907 132.656 210.23 132.656C210.444 132.655 210.657 132.697 210.856 132.779C211.054 132.86 211.235 132.981 211.387 133.132C211.538 133.284 211.659 133.465 211.741 133.663C211.822 133.862 211.864 134.075 211.863 134.289Z" fill="#FBDD91"/>
<path d="M182.575 132.656H179.217C178.986 132.656 178.799 132.844 178.799 133.075V134.122C178.799 134.353 178.986 134.541 179.217 134.541H182.575C182.806 134.541 182.994 134.353 182.994 134.122V133.075C182.994 132.844 182.806 132.656 182.575 132.656Z" fill="#FBDD91"/>
<path d="M217.035 132.656H214.334C214.103 132.656 213.915 132.844 213.915 133.075V134.122C213.915 134.353 214.103 134.541 214.334 134.541H217.035C217.266 134.541 217.454 134.353 217.454 134.122V133.075C217.454 132.844 217.266 132.656 217.035 132.656Z" fill="#FBDD91"/>
<path d="M181.416 130.632C181.416 131.33 181.158 131.923 180.844 131.923C180.53 131.923 180.272 131.344 180.272 130.632C180.272 129.92 180.523 129.341 180.844 129.341C181.165 129.341 181.416 129.934 181.416 130.632Z" fill="#FBDD91"/>
<path d="M216.714 132.147H215.688V129.327H216.477L216.714 132.147Z" fill="#FBDD91"/>
<path d="M182.617 128.224H181.514V129.327H182.617V128.224Z" fill="#FBDD91"/>
<path d="M183.72 129.327H182.617V130.43H183.72V129.327Z" fill="#FBDD91"/>
<path d="M184.822 128.224H183.72V129.327H184.822V128.224Z" fill="#FBDD91"/>
<path d="M185.918 129.327H184.815V130.43H185.918V129.327Z" fill="#FBDD91"/>
<path d="M187.021 128.224H185.918V129.327H187.021V128.224Z" fill="#FBDD91"/>
<path d="M188.117 129.327H187.014V130.43H188.117V129.327Z" fill="#FBDD91"/>
<path d="M189.22 128.224H188.117V129.327H189.22V128.224Z" fill="#FBDD91"/>
<path d="M190.323 129.327H189.22V130.43H190.323V129.327Z" fill="#FBDD91"/>
<path d="M191.419 128.224H190.316V129.327H191.419V128.224Z" fill="#FBDD91"/>
<path d="M192.521 129.327H191.419V130.43H192.521V129.327Z" fill="#FBDD91"/>
<path d="M193.617 128.224H192.514V129.327H193.617V128.224Z" fill="#FBDD91"/>
<path d="M194.72 129.327H193.617V130.43H194.72V129.327Z" fill="#FBDD91"/>
<path d="M195.823 128.224H194.72V129.327H195.823V128.224Z" fill="#FBDD91"/>
<path d="M196.919 129.327H195.816V130.43H196.919V129.327Z" fill="#FBDD91"/>
<path d="M198.022 128.224H196.919V129.327H198.022V128.224Z" fill="#FBDD91"/>
<path d="M199.117 129.327H198.015V130.43H199.117V129.327Z" fill="#FBDD91"/>
<path d="M200.22 128.224H199.118V129.327H200.22V128.224Z" fill="#FBDD91"/>
<path d="M201.323 129.327H200.22V130.43H201.323V129.327Z" fill="#FBDD91"/>
<path d="M202.419 128.224H201.316V129.327H202.419V128.224Z" fill="#FBDD91"/>
<path d="M203.522 129.327H202.419V130.43H203.522V129.327Z" fill="#FBDD91"/>
<path d="M204.618 128.224H203.515V129.327H204.618V128.224Z" fill="#FBDD91"/>
<path d="M205.721 129.327H204.618V130.43H205.721V129.327Z" fill="#FBDD91"/>
<path d="M206.823 128.224H205.721V129.327H206.823V128.224Z" fill="#FBDD91"/>
<path d="M207.919 129.327H206.816V130.43H207.919V129.327Z" fill="#FBDD91"/>
<path d="M209.022 128.224H207.919V129.327H209.022V128.224Z" fill="#FBDD91"/>
<path d="M210.118 129.327H209.015V130.43H210.118V129.327Z" fill="#FBDD91"/>
<path d="M211.221 128.224H210.118V129.327H211.221V128.224Z" fill="#FBDD91"/>
<path d="M212.324 129.327H211.221V130.43H212.324V129.327Z" fill="#FBDD91"/>
<path d="M213.42 128.224H212.317V129.327H213.42V128.224Z" fill="#FBDD91"/>
<path d="M214.522 129.327H213.419V130.43H214.522V129.327Z" fill="#FBDD91"/>
<path d="M215.625 128.224H214.522V129.327H215.625V128.224Z" fill="#FBDD91"/>
<path d="M201.044 124.971V120.378L204.827 120.448C205.052 120.451 205.272 120.519 205.46 120.642C205.648 120.766 205.796 120.941 205.888 121.146L207.612 124.971H201.044Z" fill="#FBDD91"/>
<path d="M191.893 124.971L195.041 121.104C195.226 120.882 195.457 120.704 195.719 120.584C195.981 120.463 196.267 120.402 196.556 120.406H199.878V124.999L191.893 124.971Z" fill="#FBDD91"/>
<path d="M194.713 120.378L190.867 125.195C190.867 125.195 190.867 125.355 189.38 125.55L193.924 120.336L194.713 120.378Z" fill="#FBDD91"/>
<path d="M209.706 125.195L208.694 124.971L206.405 120.602C206.714 120.612 207.022 120.647 207.326 120.706V120.706C207.326 120.706 207.375 120.755 207.382 120.776L209.706 125.195Z" fill="#FBDD91"/>
<path opacity="0.2" d="M181.416 130.632C181.416 131.33 181.158 131.923 180.844 131.923C180.53 131.923 180.272 131.344 180.272 130.632C180.272 129.92 180.523 129.341 180.844 129.341C181.165 129.341 181.416 129.934 181.416 130.632Z" fill="white"/>
<path opacity="0.2" d="M216.714 132.147H215.688V129.327H216.477L216.714 132.147Z" fill="white"/>
<path d="M219.604 137.612C215.695 144.592 207.989 149.89 199.124 149.89C190.26 149.89 182.554 144.592 178.645 137.612H219.604Z" fill="#FBDD91"/>
<path d="M203.606 113.88H198.412C198.17 113.88 197.937 113.784 197.766 113.612C197.594 113.441 197.498 113.208 197.498 112.966V112.966C197.498 112.723 197.594 112.491 197.766 112.319C197.937 112.148 198.17 112.051 198.412 112.051H203.606C203.848 112.051 204.081 112.148 204.252 112.319C204.424 112.491 204.52 112.723 204.52 112.966V112.966C204.52 113.208 204.424 113.441 204.252 113.612C204.081 113.784 203.848 113.88 203.606 113.88V113.88Z" fill="#FBDD91"/>
<path d="M202.21 112.051C202.21 112.406 202.104 112.753 201.907 113.048C201.71 113.343 201.43 113.573 201.102 113.708C200.774 113.844 200.414 113.88 200.066 113.811C199.718 113.741 199.398 113.571 199.147 113.32C198.896 113.069 198.726 112.749 198.656 112.401C198.587 112.053 198.623 111.692 198.758 111.365C198.894 111.037 199.124 110.757 199.419 110.56C199.714 110.363 200.061 110.257 200.416 110.257C200.892 110.257 201.348 110.446 201.684 110.783C202.021 111.119 202.21 111.575 202.21 112.051Z" fill="#FBDD91"/>
<path d="M202.021 113.084C202.572 113.084 203.019 112.637 203.019 112.086C203.019 111.535 202.572 111.088 202.021 111.088C201.47 111.088 201.023 111.535 201.023 112.086C201.023 112.637 201.47 113.084 202.021 113.084Z" fill="#FBDD91"/>
<path d="M216.03 121.09H212.142C211.957 121.09 211.78 121.017 211.649 120.886C211.518 120.755 211.444 120.577 211.444 120.392C211.444 120.207 211.518 120.03 211.649 119.899C211.78 119.768 211.957 119.694 212.142 119.694H216.03C216.215 119.694 216.393 119.768 216.524 119.899C216.654 120.03 216.728 120.207 216.728 120.392C216.728 120.577 216.654 120.755 216.524 120.886C216.393 121.017 216.215 121.09 216.03 121.09Z" fill="#FBDD91"/>
<path d="M213.643 121.055C214.383 121.055 214.983 120.455 214.983 119.715C214.983 118.975 214.383 118.375 213.643 118.375C212.903 118.375 212.303 118.975 212.303 119.715C212.303 120.455 212.903 121.055 213.643 121.055Z" fill="#FBDD91"/>
<path d="M214.843 120.49C215.256 120.49 215.59 120.156 215.59 119.743C215.59 119.331 215.256 118.996 214.843 118.996C214.431 118.996 214.097 119.331 214.097 119.743C214.097 120.156 214.431 120.49 214.843 120.49Z" fill="#FBDD91"/>
<path d="M186.002 120.811H180.802C180.559 120.811 180.327 120.715 180.155 120.543C179.984 120.372 179.888 120.139 179.888 119.897V119.897C179.888 119.654 179.984 119.42 180.155 119.248C180.326 119.075 180.559 118.977 180.802 118.975H186.002C186.245 118.977 186.478 119.075 186.649 119.248C186.82 119.42 186.916 119.654 186.916 119.897C186.916 120.017 186.893 120.136 186.847 120.247C186.801 120.358 186.734 120.458 186.649 120.543C186.564 120.628 186.463 120.696 186.352 120.741C186.241 120.787 186.122 120.811 186.002 120.811V120.811Z" fill="#FBDD91"/>
<path d="M182.812 120.769C183.803 120.769 184.606 119.966 184.606 118.975C184.606 117.985 183.803 117.182 182.812 117.182C181.821 117.182 181.018 117.985 181.018 118.975C181.018 119.966 181.821 120.769 182.812 120.769Z" fill="#FBDD91"/>
<path d="M184.418 120.008C184.969 120.008 185.416 119.561 185.416 119.01C185.416 118.459 184.969 118.012 184.418 118.012C183.866 118.012 183.419 118.459 183.419 119.01C183.419 119.561 183.866 120.008 184.418 120.008Z" fill="#FBDD91"/>
<path d="M211.919 170.641H186.044C184.855 170.641 183.716 170.169 182.875 169.329C182.035 168.488 181.563 167.349 181.563 166.16V166.16C181.562 165.571 181.677 164.988 181.902 164.443C182.127 163.899 182.457 163.404 182.873 162.987C183.289 162.57 183.783 162.239 184.327 162.014C184.872 161.788 185.455 161.672 186.044 161.672H211.919C212.508 161.672 213.091 161.788 213.635 162.014C214.179 162.239 214.674 162.57 215.09 162.987C215.506 163.404 215.836 163.899 216.061 164.443C216.286 164.988 216.401 165.571 216.4 166.16V166.16C216.4 167.349 215.928 168.488 215.087 169.329C214.247 170.169 213.107 170.641 211.919 170.641V170.641Z" fill="#FBDD91"/>
<path d="M190.078 168.163L190.323 167.654C190.75 168.002 191.286 168.189 191.837 168.184C192.626 168.184 192.968 167.877 192.968 167.486C192.968 166.363 190.176 167.074 190.176 165.392C190.176 164.694 190.728 164.08 191.935 164.08C192.454 164.073 192.965 164.214 193.408 164.485L193.191 165.008C192.815 164.772 192.38 164.644 191.935 164.638C191.153 164.638 190.818 164.967 190.818 165.336C190.818 166.46 193.61 165.755 193.61 167.43C193.61 168.128 193.045 168.736 191.837 168.736C191.202 168.756 190.58 168.554 190.078 168.163V168.163Z" fill="white"/>
<path d="M195.411 164.673H193.834V164.136H197.631V164.701H196.053V168.722H195.411V164.673Z" fill="white"/>
<path d="M201.044 167.542H198.608L198.105 168.694H197.407L199.501 164.108H200.151L202.245 168.694H201.547L201.044 167.542ZM200.814 167.019L199.829 164.771L198.838 167.019H200.814Z" fill="white"/>
<path d="M205.965 168.694L204.981 167.298H204.688H203.557V168.694H202.901V164.136H204.688C205.881 164.136 206.6 164.736 206.6 165.734C206.615 166.052 206.525 166.366 206.343 166.628C206.161 166.889 205.898 167.083 205.595 167.179L206.684 168.722L205.965 168.694ZM205.965 165.706C205.965 165.05 205.525 164.673 204.688 164.673H203.571V166.767H204.688C205.511 166.74 205.93 166.356 205.93 165.706H205.965Z" fill="white"/>
<path d="M208.506 164.673H206.935V164.136H210.725V164.701H209.155V168.722H208.506V164.673Z" fill="white"/>
<path d="M283.408 213.813C283.275 216.605 264.764 221.023 262.384 219.627C260.004 218.231 262.384 199.385 262.384 199.385L276.644 196.474C276.91 197.012 283.555 211.07 283.408 213.813Z" fill="#2E353A"/>
<path d="M279.569 198.687C275.786 201.06 270.949 196.963 267.375 192.803C265.552 190.661 263.889 188.389 262.398 186.004L266.53 179.89L272.24 185.872L273.287 186.786L272.589 185.53L268.164 178.55L272.896 164.834C272.896 164.834 286.43 194.38 279.569 198.687Z" fill="#6278F2"/>
<path opacity="0.2" d="M266.53 179.89L272.24 185.872C271.542 189.034 269.832 191.623 267.228 192.796C265.406 190.654 263.742 188.382 262.252 185.997L266.53 179.89Z" fill="black"/>
<path opacity="0.2" d="M272.631 185.537L268.171 178.557L272.938 164.834C272.938 164.834 275.032 177.063 272.631 185.537Z" fill="black"/>
<path d="M212.058 171.032L205.302 169.636C205.302 169.636 202.943 167.368 202.091 166.691C201.239 166.014 198.112 164.946 197.582 165.232C197.051 165.518 199.969 166.879 199.969 166.879C199.969 166.879 198.573 169.881 198.845 170.795C199.118 171.709 203.243 172.889 203.62 172.735L210.446 175.346L212.058 171.032Z" fill="#EBB376"/>
<path d="M209.944 170.027L206.775 169.552L205.337 173.866L207.982 174.955L209.944 170.027Z" fill="#6278F2"/>
<path opacity="0.6" d="M209.944 170.027L206.775 169.552L205.337 173.866L207.982 174.955L209.944 170.027Z" fill="white"/>
<path d="M284.336 315.707L279.688 316.523L277.782 310.186L276.044 304.364L281.405 302.494L282.961 309.488L284.336 315.707Z" fill="#E4897B"/>
<path opacity="0.2" d="M282.982 309.627L277.803 310.311L276.051 304.434L281.405 302.528L282.982 309.627Z" fill="black"/>
<path d="M253.296 317.696H248.578L247.803 311.121L247.098 305.09L252.703 304.176L253.024 311.337L253.296 317.696Z" fill="#E4897B"/>
<path opacity="0.2" d="M253.024 311.484L247.803 311.254L247.098 305.153L252.703 304.211L253.024 311.484Z" fill="black"/>
<path d="M283.408 305.942L275.765 307.289C268.052 288.073 262.566 272.033 258.692 258.722C256.598 251.54 254.978 245.153 253.729 239.485L254.078 260.425V307.924H246.33C227.449 217.882 240.83 197.305 240.83 197.305L263.417 193.452C264.311 197.622 264.943 201.844 265.309 206.093L266.328 213.561L275.158 259.155L283.408 305.942Z" fill="#6278F2"/>
<g opacity="0.5">
<path opacity="0.5" d="M283.408 305.942L275.765 307.289C268.722 289.734 263.529 274.832 259.711 262.24L258.664 258.75C256.772 252.231 255.453 246.367 254.057 241.104C253.997 240.567 253.877 240.038 253.701 239.527L254.057 260.467V307.924H246.33C234.799 252.929 235.302 223.85 237.438 209.541C238.834 200.418 240.83 197.305 240.83 197.305L263.417 193.452C264.311 197.622 264.943 201.844 265.309 206.093L265.616 208.34L266.314 213.561L275.144 259.155L283.408 305.942Z" fill="white"/>
</g>
<path d="M274.578 306.347L284.064 303.199L283.932 307.233L276.093 309.732L274.578 306.347Z" fill="#6278F2"/>
<path opacity="0.6" d="M274.578 306.347L284.064 303.199L283.932 307.233L276.093 309.732L274.578 306.347Z" fill="white"/>
<path d="M245.318 306.786L255.202 305.334L254.371 309.285L246.219 310.381L245.318 306.786Z" fill="#6278F2"/>
<path opacity="0.6" d="M245.318 306.786L255.202 305.334L254.371 309.285L246.219 310.381L245.318 306.786Z" fill="white"/>
<path opacity="0.2" d="M259.746 262.24L258.699 258.75C256.807 252.231 255.488 246.367 254.092 241.105L253.289 231.416C253.289 231.416 258.112 220.772 256.305 213.268C256.472 213.694 259.662 221.854 258.399 230.02C258.115 240.778 258.565 251.543 259.746 262.24V262.24Z" fill="black"/>
<path opacity="0.2" d="M265.616 208.333L237.438 209.541C238.834 200.418 240.83 197.305 240.83 197.305L263.417 193.452C264.311 197.622 264.943 201.844 265.309 206.093L265.616 208.333Z" fill="black"/>
<path d="M262.538 154.608C262.482 154.659 262.421 154.703 262.356 154.741C261.487 155.405 260.496 155.891 259.439 156.172C256.354 156.87 254.246 156.458 252.871 155.062C250.944 152.968 250.462 149.262 250.735 144.781C250.781 142.999 251.111 141.237 251.712 139.559C251.712 139.559 251.712 139.49 251.712 139.476C251.712 139.462 251.761 139.343 251.789 139.287C252.166 138.341 252.775 137.504 253.559 136.853C254.343 136.202 255.277 135.758 256.277 135.56C257.146 135.368 258.032 135.269 258.922 135.267C267.654 135.176 269.225 149.625 262.538 154.608Z" fill="#EBB376"/>
<path opacity="0.2" d="M262.356 154.741C261.48 155.365 260.488 155.809 259.439 156.046C256.354 156.744 254.246 156.235 252.871 154.818C254.716 155.275 256.66 155.116 258.406 154.364C259.676 153.792 261.072 154.085 262.356 154.741Z" fill="black"/>
<path d="M263.243 162.621C263.78 165.106 260.563 166.111 260.563 166.111C255.3 163.864 254.322 161.065 254.322 161.065C258.713 158.775 257.442 152.298 257.442 152.298L258.336 152.738L264.618 153.966C264.618 153.966 262.88 157.303 262.65 158.063C261.449 162.042 263.243 162.621 263.243 162.621Z" fill="#EBB376"/>
<path d="M251.698 139.497C251.698 139.497 251.223 145.618 257.017 148.25C257.017 148.25 259.509 154.601 263.173 154.692C268.171 154.818 272.575 147.712 270.851 140.46C268.596 131.072 254.371 130.304 251.698 139.497Z" fill="#2E353A"/>
<path d="M261.463 132.377C261.463 132.377 251.956 129.76 250.658 136.391C248.857 145.59 256.13 146.574 256.13 146.574C256.13 146.574 256.919 154.252 254.099 157.009C254.099 157.009 260.604 161.567 271.228 158.056C278.173 155.76 271.661 144.941 271.661 144.941C271.661 144.941 275.5 130.751 261.463 132.377Z" fill="#2E353A"/>
<path d="M254.092 146.491C254.092 145.534 254.86 143.929 256.34 144.152C257.819 144.376 258.727 148.159 254.944 149.003C254.406 149.129 254.092 148.48 254.092 146.491Z" fill="#EBB376"/>
<path d="M255.069 132.998C255.069 132.998 250.372 131.798 249.087 137.612C247.803 143.426 252.082 145.625 252.082 145.625" stroke="#2E353A" stroke-width="0.5" stroke-linecap="round" stroke-linejoin="round"/>
<path d="M251.691 160.367C251.691 160.367 256.779 157.624 262.356 159.543C267.933 161.463 266.656 165.183 266.656 165.183L251.691 160.367Z" fill="#6278F2"/>
<path opacity="0.5" d="M251.691 160.367C251.691 160.367 256.779 157.624 262.356 159.543C267.933 161.463 266.656 165.183 266.656 165.183L251.691 160.367Z" fill="white"/>
<path d="M272.938 164.834C272.938 164.834 268.115 162.943 263.794 161.756C260.422 160.909 256.993 160.305 253.534 159.948C250.271 159.58 246.987 159.45 243.706 159.557C243.803 161.135 243.866 162.628 243.929 164.031C244.013 165.881 244.069 167.598 244.111 169.19C244.187 172.177 244.18 174.732 244.111 177.007C243.992 181.956 243.394 186.881 242.324 191.714L237.438 203.58L266.656 207.293L264.995 195.658C269.881 181.544 271.919 174.111 272.673 169.895C273.58 165.197 272.938 164.834 272.938 164.834Z" fill="#6278F2"/>
<path d="M243.706 159.578C245.355 163.334 245.514 167.575 244.152 171.444C244.152 171.444 228.266 182.808 223.729 181.935C219.192 181.063 206.977 175.423 206.977 175.423L208.896 169.692C208.896 169.692 223.031 172.484 224.252 173.036C225.474 173.587 243.706 159.578 243.706 159.578Z" fill="#6278F2"/>
<path d="M269.727 163.647C269.727 163.647 276.547 184.511 278.173 201.779L275.946 201.493C275.946 201.493 272.771 173.119 268.687 163.543L269.727 163.647Z" fill="#2E353A"/>
<path opacity="0.2" d="M269.727 163.647C269.727 163.647 276.547 184.511 278.173 201.779L275.946 201.493C275.946 201.493 272.771 173.119 268.687 163.543L269.727 163.647Z" fill="black"/>
<path d="M276.665 196.488L267.473 198.338L270.495 219.034C276.421 217.812 283.338 215.502 283.422 213.799C283.555 211.07 276.91 197.012 276.665 196.488Z" fill="#2E353A"/>
<path opacity="0.1" d="M283.408 213.813C282.012 214.811 279.457 216.486 277.126 214.273C274.795 212.061 276.658 196.474 276.658 196.474C276.91 197.012 283.555 211.07 283.408 213.813Z" fill="white"/>
<path d="M272.387 200.432C272.387 200.432 270.928 167.898 267.745 163.138L268.687 163.543C268.687 163.543 273.161 168.673 274.432 200.432H272.387Z" fill="#2E353A"/>
<path d="M241.249 327.978C241.96 327.404 242.768 326.965 243.636 326.679V326.679C243.636 326.679 246.232 324.104 247.482 316.349L250.881 315.469C251.457 315.329 252.063 315.369 252.616 315.583C253.169 315.798 253.643 316.177 253.973 316.67C254.065 316.809 254.138 316.959 254.19 317.117C254.362 317.948 254.484 318.79 254.553 319.637C254.895 322.268 254.601 328.159 254.601 328.159H253.987L253.743 322.812C253.652 320.998 252.263 323.12 251.865 325.081C251.467 327.042 250.623 329.108 246.644 329.213C242.003 329.297 240.076 329.115 241.249 327.978Z" fill="#2E353A"/>
<path d="M254.092 316.733C254.315 314.918 254.385 311.763 254.385 311.763L246.833 312.601C246.833 312.601 247.747 316.188 246.993 318.883C250.797 317.885 254.092 316.733 254.092 316.733Z" fill="#2E353A"/>
<path d="M271.982 327.978C272.692 327.403 273.501 326.963 274.369 326.679V326.679C274.369 326.679 276.965 324.104 278.215 316.349L281.614 315.469C282.19 315.329 282.796 315.369 283.349 315.583C283.902 315.798 284.376 316.177 284.706 316.67C284.798 316.809 284.871 316.959 284.923 317.117C285.095 317.948 285.217 318.79 285.286 319.637C285.628 322.268 285.334 328.159 285.334 328.159H284.72L284.476 322.812C284.385 320.998 282.996 323.12 282.598 325.081C282.2 327.042 281.356 329.108 277.377 329.213C272.736 329.297 270.844 329.115 271.982 327.978Z" fill="#2E353A"/>
<path d="M284.804 316.733C285.027 314.918 285.097 311.763 285.097 311.763L277.545 312.601C277.545 312.601 278.459 316.188 277.705 318.883C281.53 317.885 284.804 316.733 284.804 316.733Z" fill="#2E353A"/>
</g>
<rect x="5.5" y="1.5" width="332" height="332" rx="166" stroke="#FCFBFB" stroke-width="3"/>
</g>
<defs>
<filter id="filter0_d_1_2783" x="0" y="0" width="343" height="343" filterUnits="userSpaceOnUse" color-interpolation-filters="sRGB">
<feFlood flood-opacity="0" result="BackgroundImageFix"/>
<feColorMatrix in="SourceAlpha" type="matrix" values="0 0 0 0 0 0 0 0 0 0 0 0 0 0 0 0 0 0 127 0" result="hardAlpha"/>
<feOffset dy="4"/>
<feGaussianBlur stdDeviation="2"/>
<feComposite in2="hardAlpha" operator="out"/>
<feColorMatrix type="matrix" values="0 0 0 0 0 0 0 0 0 0 0 0 0 0 0 0 0 0 0.1 0"/>
<feBlend mode="normal" in2="BackgroundImageFix" result="effect1_dropShadow_1_2783"/>
<feBlend mode="normal" in="SourceGraphic" in2="effect1_dropShadow_1_2783" result="shape"/>
</filter>
<clipPath id="clip0_1_2783">
<rect x="7" y="3" width="329" height="329" rx="164.5" fill="white"/>
</clipPath>
</defs>
</svg>
