<svg width="343" height="343" viewBox="0 0 343 343" fill="none" xmlns="http://www.w3.org/2000/svg">
<g filter="url(#filter0_d_1_2649)">
<g clip-path="url(#clip0_1_2649)">
<rect x="7" y="3" width="329" height="329" rx="164.5" fill="#E6EBF3"/>
<path d="M334.563 277.331H-4.68047V277.5H334.563V277.331Z" fill="#E0E0E0"/>
<path d="M112.243 281.429H105.133V281.598H112.243V281.429Z" fill="#E0E0E0"/>
<path d="M311.623 285.88H285.881V286.049H311.623V285.88Z" fill="#E0E0E0"/>
<path d="M231.433 281.51H210.63V281.68H231.433V281.51Z" fill="#E0E0E0"/>
<path d="M159.832 285.377H123.628V285.547H159.832V285.377Z" fill="#E0E0E0"/>
<path d="M90.0837 284.305H77.6403V284.475H90.0837V284.305Z" fill="#E0E0E0"/>
<path d="M282.604 285.88H272.25V286.049H282.604V285.88Z" fill="#E0E0E0"/>
<path d="M73.6847 284.224H39.3736V284.394H73.6847V284.224Z" fill="#E0E0E0"/>
<path d="M156.121 247.07H25.1119C24.0855 247.068 23.1019 246.659 22.3768 245.933C21.6517 245.207 21.2445 244.222 21.2445 243.196V59.0344C21.2534 58.014 21.6646 57.0383 22.3887 56.3193C23.1128 55.6003 24.0914 55.196 25.1119 55.1942H156.121C157.148 55.1942 158.134 55.6024 158.86 56.3289C159.587 57.0555 159.995 58.0409 159.995 59.0684V243.196C159.995 244.223 159.587 245.209 158.86 245.935C158.134 246.662 157.148 247.07 156.121 247.07V247.07ZM25.1119 55.3299C24.1305 55.3317 23.19 55.7228 22.4967 56.4173C21.8035 57.1119 21.4141 58.0531 21.4141 59.0344V243.196C21.4141 244.177 21.8035 245.118 22.4967 245.813C23.19 246.508 24.1305 246.899 25.1119 246.9H156.121C157.103 246.899 158.044 246.508 158.738 245.813C159.433 245.119 159.824 244.178 159.825 243.196V59.0344C159.824 58.0525 159.433 57.1113 158.738 56.4169C158.044 55.7226 157.103 55.3317 156.121 55.3299H25.1119Z" fill="#E0E0E0"/>
<path d="M302.884 247.07H171.868C170.841 247.068 169.857 246.66 169.131 245.933C168.405 245.207 167.996 244.223 167.994 243.196V59.0344C168.005 58.0134 168.418 57.0377 169.143 56.3189C169.868 55.6 170.847 55.1959 171.868 55.1942H302.884C303.903 55.1977 304.88 55.6028 305.603 56.3217C306.326 57.0405 306.736 58.0152 306.745 59.0344V243.196C306.745 244.221 306.338 245.204 305.615 245.931C304.891 246.657 303.909 247.066 302.884 247.07V247.07ZM171.868 55.3299C170.886 55.3317 169.945 55.7226 169.251 56.4169C168.557 57.1113 168.166 58.0525 168.164 59.0344V243.196C168.166 244.178 168.557 245.119 169.251 245.813C169.945 246.508 170.886 246.899 171.868 246.9H302.884C303.866 246.899 304.807 246.508 305.502 245.813C306.196 245.119 306.587 244.178 306.589 243.196V59.0344C306.587 58.0525 306.196 57.1113 305.502 56.4169C304.807 55.7226 303.866 55.3317 302.884 55.3299H171.868Z" fill="#E0E0E0"/>
<path d="M126.722 98.0134H45.6021V277.412H126.722V98.0134Z" fill="#E6E6E6"/>
<path d="M126.722 98.0134H49.4492V277.412H126.722V98.0134Z" fill="#F5F5F5"/>
<path d="M122.651 273.348L122.651 102.091H53.5201L53.5201 273.348H122.651Z" fill="#F0F0F0"/>
<path d="M122.651 273.341L122.651 102.084H121.593L121.593 273.341H122.651Z" fill="#E6E6E6"/>
<path d="M113.417 183.767C115.332 183.767 116.884 182.215 116.884 180.3C116.884 178.386 115.332 176.833 113.417 176.833C111.502 176.833 109.95 178.386 109.95 180.3C109.95 182.215 111.502 183.767 113.417 183.767Z" fill="#E6E6E6"/>
<path d="M114.774 183.048C116.689 183.048 118.241 181.496 118.241 179.581C118.241 177.666 116.689 176.114 114.774 176.114C112.859 176.114 111.307 177.666 111.307 179.581C111.307 181.496 112.859 183.048 114.774 183.048Z" fill="#FAFAFA"/>
<path d="M297.415 78.9005H242.506V182.044H297.415V78.9005Z" fill="#E0E0E0"/>
<path d="M299.763 78.9005H244.853V182.044H299.763V78.9005Z" fill="#F5F5F5"/>
<path d="M295.55 177.505V83.4396H249.06V177.505H295.55Z" fill="#FAFAFA"/>
<path d="M295.556 177.505V83.4396H293.786V177.505H295.556Z" fill="#E0E0E0"/>
<path d="M298.026 150.264H246.597V156.356H298.026V150.264Z" fill="#F5F5F5"/>
<path d="M229.709 78.9005H174.799V182.044H229.709V78.9005Z" fill="#E0E0E0"/>
<path d="M232.05 78.9005H177.14V182.044H232.05V78.9005Z" fill="#F5F5F5"/>
<path d="M227.844 177.498V83.4329H181.354V177.498H227.844Z" fill="#FAFAFA"/>
<path d="M227.844 177.505V83.4396H226.073V177.505H227.844Z" fill="#E0E0E0"/>
<path d="M230.313 150.264H178.884V156.356H230.313V150.264Z" fill="#F5F5F5"/>
<path d="M103.538 90.1227L102.921 90.7401H72.6262V78.9005L103.538 90.1227Z" fill="#E0E0E0"/>
<path d="M73.8 90.1227H103.538L102.371 78.9005H72.6262L73.8 90.1227Z" fill="#F5F5F5"/>
<path d="M134.606 186.712H147.429V173.889H134.606V186.712Z" fill="#EBEBEB"/>
<path d="M134.613 173.889H134.178V186.712H134.613V173.889Z" fill="#E0E0E0"/>
<path d="M146.235 184.269L145.774 184.731H136.234V175.938L146.235 184.269Z" fill="#E0E0E0"/>
<path d="M137.103 184.269H146.235L145.374 175.938H136.234L137.103 184.269Z" fill="#FAFAFA"/>
<path d="M152.925 203.518L159.371 197.697L165.81 203.518V277.5H152.925V203.518Z" fill="#F0F0F0"/>
<path d="M175.254 203.518L181.693 197.697L188.139 203.518V277.5H175.254V203.518Z" fill="#F0F0F0"/>
<path d="M197.576 203.518L204.022 197.697L210.461 203.518V277.5H197.576V203.518Z" fill="#F0F0F0"/>
<path d="M219.905 203.518L226.344 197.697L232.783 203.518V277.5H219.905V203.518Z" fill="#F0F0F0"/>
<path d="M242.227 203.518L248.673 197.697L255.112 203.518V277.5H242.227V203.518Z" fill="#F0F0F0"/>
<path d="M264.556 203.518L270.995 197.697L277.434 203.518V277.5H264.556V203.518Z" fill="#F0F0F0"/>
<path d="M286.879 203.518L293.324 197.697L299.763 203.518V277.5H286.879V203.518Z" fill="#F0F0F0"/>
<path d="M159.364 217.563L293.317 217.563V214.279L159.364 214.279V217.563Z" fill="#F0F0F0"/>
<path d="M159.364 256.426H293.317V253.143L159.364 253.143V256.426Z" fill="#F0F0F0"/>
<path d="M164.941 307.971C237.595 307.971 296.493 304.532 296.493 300.291C296.493 296.049 237.595 292.61 164.941 292.61C92.2871 292.61 33.3894 296.049 33.3894 300.291C33.3894 304.532 92.2871 307.971 164.941 307.971Z" fill="#F5F5F5"/>
<path d="M234.106 146.647L234.466 146.953L234.893 147.292C235.178 147.523 235.483 147.753 235.782 147.97C236.392 148.411 237.017 148.846 237.668 149.239C238.959 150.056 240.303 150.786 241.691 151.424C243.087 152.05 244.516 152.598 245.973 153.066C246.712 153.263 247.438 153.507 248.191 153.656L249.318 153.9H249.453C249.453 153.9 249.453 153.9 249.419 153.9C249.385 153.9 249.352 153.975 249.419 153.9C249.558 153.752 249.668 153.579 249.745 153.391C250.007 152.793 250.192 152.164 250.295 151.519C250.536 150.004 250.661 148.473 250.668 146.939C250.668 145.358 250.668 143.75 250.573 142.142C250.478 140.534 250.376 138.899 250.24 137.305L252.615 136.877C253.437 140.142 253.99 143.469 254.271 146.824C254.43 148.571 254.43 150.328 254.271 152.075C254.176 153.063 253.962 154.036 253.633 154.972C253.421 155.555 253.122 156.102 252.744 156.594C252.253 157.243 251.583 157.736 250.817 158.012C250.23 158.221 249.605 158.299 248.985 158.243L248.707 158.209H248.544L247.248 157.998C246.38 157.869 245.532 157.639 244.67 157.456C242.97 157.023 241.305 156.463 239.69 155.78C238.072 155.093 236.508 154.288 235.008 153.371C234.255 152.916 233.529 152.414 232.81 151.892C232.45 151.627 232.098 151.356 231.745 151.071C231.568 150.929 231.399 150.779 231.222 150.623C231.046 150.467 230.89 150.331 230.659 150.114L234.106 146.647Z" fill="#9F5B53"/>
<path d="M227.301 143.798C234.174 142.861 239.724 148.418 239.724 148.418L234.594 157.144C234.594 157.144 226.683 153.812 225.489 150.861C224.254 147.808 223.773 144.273 227.301 143.798Z" fill="#6278F2"/>
<path opacity="0.3" d="M227.301 143.798C234.174 142.861 239.724 148.418 239.724 148.418L234.594 157.144C234.594 157.144 226.683 153.812 225.489 150.861C224.254 147.808 223.773 144.273 227.301 143.798Z" fill="black"/>
<path d="M250.885 138.587L247.119 135.113L252.703 132.935C252.703 132.935 254.474 135.92 253.043 138.906L250.885 138.587Z" fill="#9F5B53"/>
<path d="M246.359 130.133L250.803 129.285L252.703 132.935L247.119 135.113L246.359 130.133Z" fill="#9F5B53"/>
<path d="M202.936 295.087L208.473 295.629L214.24 282.446L208.703 281.904L202.936 295.087Z" fill="#9F5B53"/>
<path d="M167.268 275.6L171.427 279.508L180.404 269.636L176.245 265.735L167.268 275.6Z" fill="#9F5B53"/>
<path d="M173.348 277.636L170.22 272.004C170.168 271.907 170.082 271.832 169.978 271.793C169.874 271.754 169.76 271.755 169.657 271.794L164.846 273.626C164.726 273.676 164.619 273.75 164.53 273.844C164.441 273.939 164.373 274.051 164.331 274.173C164.288 274.296 164.272 274.426 164.284 274.555C164.296 274.684 164.335 274.809 164.398 274.922C165.525 276.869 166.162 277.751 167.533 280.228C168.381 281.748 170.03 285.242 171.197 287.345C172.364 289.448 174.508 288.41 174.209 287.426C172.852 283.03 173.124 280.58 173.531 278.64C173.588 278.294 173.524 277.939 173.348 277.636Z" fill="#263238"/>
<path d="M209.212 293.92H202.427C202.305 293.921 202.187 293.962 202.09 294.037C201.994 294.112 201.924 294.216 201.891 294.333L200.412 299.714C200.376 299.841 200.37 299.975 200.395 300.105C200.421 300.235 200.476 300.357 200.557 300.462C200.639 300.566 200.744 300.65 200.863 300.706C200.983 300.763 201.115 300.79 201.247 300.786C203.642 300.786 204.775 300.786 207.767 300.786H216.906C219.396 300.786 219.912 298.275 218.888 298.072C214.274 297.054 211.614 295.643 210.196 294.306C209.931 294.054 209.578 293.915 209.212 293.92Z" fill="#263238"/>
<path d="M214.233 282.453L211.268 289.245H205.487L208.697 281.91L214.233 282.453Z" fill="#8A4743"/>
<path d="M176.238 265.735L180.404 269.643L175.77 274.725L171.611 270.817L176.238 265.735Z" fill="#8A4743"/>
<path d="M233.183 144.435C233.183 144.435 235.666 145.535 227.321 178.577L204.124 176.541C205.331 167.131 205.847 161.309 203.004 141.545C206.312 141.159 209.643 141.012 212.971 141.104C216.499 141.164 220.018 141.477 223.501 142.04C226.767 142.676 229.998 143.475 233.183 144.435V144.435Z" fill="#6278F2"/>
<path opacity="0.3" d="M233.183 144.435C233.183 144.435 235.666 145.535 227.321 178.577L204.124 176.541C205.331 167.131 205.847 161.309 203.004 141.545C206.312 141.159 209.643 141.012 212.971 141.104C216.499 141.164 220.018 141.477 223.501 142.04C226.767 142.676 229.998 143.475 233.183 144.435V144.435Z" fill="black"/>
<path d="M212.971 141.131C212.971 141.131 211.655 140.989 210.101 140.989C209.165 142.434 212.008 147.923 217.028 152.048C218.153 150.15 219.581 148.45 221.255 147.014L212.971 141.131Z" fill="#FAFAFA"/>
<path d="M223.501 142.04C224.173 142.083 224.838 142.189 225.489 142.359C226.425 143.804 228.237 148.913 225.489 152.048C224.364 150.15 222.937 148.45 221.262 147.014L223.501 142.04Z" fill="#FAFAFA"/>
<path d="M222.009 150.691C222.009 151.105 221.893 151.444 221.696 151.458C221.5 151.471 221.33 151.139 221.303 150.732C221.276 150.325 221.418 149.972 221.615 149.965C221.812 149.958 221.988 150.277 222.009 150.691Z" fill="#FAFAFA"/>
<path d="M221.934 153.832C221.934 154.24 221.758 154.572 221.561 154.572C221.364 154.572 221.221 154.226 221.228 153.812C221.235 153.398 221.405 153.073 221.601 153.073C221.798 153.073 221.968 153.419 221.934 153.832Z" fill="#FAFAFA"/>
<path d="M215.041 129.359C215.414 132.806 215.536 139.075 213.005 141.131C215.489 143.441 218.262 145.419 221.255 147.014C225.286 144.232 223.501 142.04 223.501 142.04C219.803 140.812 220.143 138.017 221.025 135.439L215.041 129.359Z" fill="#9F5B53"/>
<path d="M217.483 131.863L221.025 135.459C220.811 136.057 220.647 136.672 220.536 137.298C219.111 136.965 217.049 135.486 217.028 133.96C217.052 133.239 217.206 132.529 217.483 131.863V131.863Z" fill="#8A4743"/>
<path d="M221.812 119.148C221.812 119.148 225.571 122.839 226.398 124.637C228.678 125.485 228.061 119.481 226.331 116.007C223.291 118.714 221.812 119.148 221.812 119.148Z" fill="#263238"/>
<path d="M212.008 123.972C213.446 129.482 213.935 131.843 217.313 134.15C222.389 137.617 228.848 134.645 229.072 128.824C229.289 123.579 226.9 115.457 221.011 114.317C219.714 114.057 218.372 114.133 217.112 114.539C215.852 114.944 214.717 115.665 213.815 116.632C212.913 117.6 212.273 118.782 211.956 120.067C211.64 121.352 211.658 122.696 212.008 123.972V123.972Z" fill="#9F5B53"/>
<path d="M224.499 116.936C227.023 117.31 229.54 114.948 225.455 112.418C226.765 112.282 228.169 107.668 223.42 107.919C223.189 105.728 218.487 103.774 215.956 107.241C213.032 105.314 208.88 107.282 209.809 110.274C206.451 110.484 204.7 115.071 207.475 115.817C204.137 117.852 203.554 121.143 206.797 121.74C207.245 125.546 214.701 123.843 214.125 120.302C215.481 121.028 219.742 119.467 218.874 117.588C220.251 119.359 224.499 118.551 224.499 116.936Z" fill="#263238"/>
<path d="M209.043 121.781C209.043 121.781 211.811 126.259 212.177 128.206C214.213 129.563 215.034 123.599 214.213 119.813C210.569 121.686 209.043 121.781 209.043 121.781Z" fill="#263238"/>
<path d="M211.553 128.946C212.068 129.919 212.945 130.65 213.996 130.981C215.393 131.395 216.119 130.153 215.76 128.823C215.427 127.623 214.308 125.96 212.896 126.109C212.588 126.151 212.294 126.27 212.043 126.454C211.791 126.638 211.59 126.882 211.456 127.163C211.323 127.445 211.262 127.756 211.279 128.067C211.296 128.378 211.39 128.68 211.553 128.946V128.946Z" fill="#9F5B53"/>
<path d="M227.321 178.577C227.321 178.577 235.171 213.295 229.926 237.768C226.419 254.16 213.765 287.297 213.765 287.297L203.873 287.04C203.873 287.04 213.453 252.288 215.407 238.623C218.799 215.242 210.305 177.125 210.305 177.125L227.321 178.577Z" fill="#6278F2"/>
<path opacity="0.6" d="M227.321 178.577C227.321 178.577 235.171 213.295 229.926 237.768C226.419 254.16 213.765 287.297 213.765 287.297L203.873 287.04C203.873 287.04 213.453 252.288 215.407 238.623C218.799 215.242 210.305 177.125 210.305 177.125L227.321 178.577Z" fill="#FAFAFA"/>
<path d="M218.27 185.586L213.324 193.388C214.813 202.64 215.758 211.972 216.153 221.335C223.108 208.878 219.817 192.18 218.27 185.586Z" fill="#6278F2"/>
<path opacity="0.4" d="M218.27 185.586L213.324 193.388C214.813 202.64 215.758 211.972 216.153 221.335C223.108 208.878 219.817 192.18 218.27 185.586Z" fill="#FAFAFA"/>
<path d="M215.163 287.786L202.936 287.481L203.649 283.722L216.988 284.353L215.163 287.786Z" fill="#6278F2"/>
<path opacity="0.3" d="M215.163 287.786L202.936 287.481L203.649 283.722L216.988 284.353L215.163 287.786Z" fill="black"/>
<path d="M222.246 178.204C222.246 178.204 217.646 215.025 207.665 235.122C199.605 251.358 178.09 274.474 178.09 274.474L172.594 268.809C172.594 268.809 187.121 243.705 193.112 232.903C207.801 206.442 195.826 186.278 204.124 176.589L222.246 178.204Z" fill="#6278F2"/>
<path opacity="0.6" d="M222.246 178.204C222.246 178.204 217.646 215.025 207.665 235.122C199.605 251.358 178.09 274.474 178.09 274.474L172.594 268.809C172.594 268.809 187.121 243.705 193.112 232.903C207.801 206.442 195.826 186.278 204.124 176.589L222.246 178.204Z" fill="#FAFAFA"/>
<path d="M178.647 275.227L171.55 268.313L173.904 265.104L181.639 273.104L178.647 275.227Z" fill="#6278F2"/>
<path opacity="0.3" d="M178.647 275.227L171.55 268.313L173.904 265.104L181.639 273.104L178.647 275.227Z" fill="black"/>
<path d="M203.893 175.178L202.665 177.159C202.57 177.315 202.753 177.498 203.018 177.518L227.341 179.622C227.552 179.622 227.735 179.554 227.762 179.425L228.149 177.39C228.149 177.247 228.006 177.105 227.776 177.084L204.286 175.049C204.215 175.035 204.142 175.04 204.073 175.062C204.004 175.085 203.942 175.125 203.893 175.178V175.178Z" fill="#263238"/>
<path d="M206.824 178.075L206.193 178.021C206.064 178.021 205.976 177.939 205.989 177.858L206.519 175.184C206.519 175.11 206.654 175.056 206.777 175.062L207.408 175.117C207.53 175.117 207.618 175.205 207.604 175.279L207.075 177.953C207.062 178.034 206.946 178.088 206.824 178.075Z" fill="#6278F2"/>
<path opacity="0.6" d="M206.824 178.075L206.193 178.021C206.064 178.021 205.976 177.939 205.989 177.858L206.519 175.184C206.519 175.11 206.654 175.056 206.777 175.062L207.408 175.117C207.53 175.117 207.618 175.205 207.604 175.279L207.075 177.953C207.062 178.034 206.946 178.088 206.824 178.075Z" fill="#FAFAFA"/>
<path d="M225.557 179.696L224.926 179.642C224.804 179.642 224.716 179.561 224.729 179.479L225.258 176.806C225.258 176.731 225.387 176.677 225.51 176.684L226.141 176.738C226.269 176.738 226.358 176.826 226.344 176.901L225.815 179.574C225.791 179.62 225.753 179.656 225.706 179.678C225.66 179.7 225.607 179.707 225.557 179.696Z" fill="#6278F2"/>
<path opacity="0.6" d="M225.557 179.696L224.926 179.642C224.804 179.642 224.716 179.561 224.729 179.479L225.258 176.806C225.258 176.731 225.387 176.677 225.51 176.684L226.141 176.738C226.269 176.738 226.358 176.826 226.344 176.901L225.815 179.574C225.791 179.62 225.753 179.656 225.706 179.678C225.66 179.7 225.607 179.707 225.557 179.696Z" fill="#FAFAFA"/>
<path d="M216.187 178.889L215.563 178.835C215.434 178.835 215.346 178.746 215.359 178.672L215.889 175.999C215.889 175.917 216.018 175.863 216.146 175.876L216.771 175.931C216.9 175.931 216.988 176.012 216.974 176.094L216.445 178.76C216.431 178.841 216.316 178.896 216.187 178.889Z" fill="#6278F2"/>
<path opacity="0.6" d="M216.187 178.889L215.563 178.835C215.434 178.835 215.346 178.746 215.359 178.672L215.889 175.999C215.889 175.917 216.018 175.863 216.146 175.876L216.771 175.931C216.9 175.931 216.988 176.012 216.974 176.094L216.445 178.76C216.431 178.841 216.316 178.896 216.187 178.889Z" fill="#FAFAFA"/>
<path d="M220.767 123.87C220.855 124.325 221.167 124.644 221.445 124.583C221.724 124.522 221.907 124.115 221.819 123.66C221.73 123.206 221.418 122.887 221.14 122.941C220.862 122.995 220.679 123.416 220.767 123.87Z" fill="#263238"/>
<path d="M225.896 122.86C225.984 123.314 226.297 123.633 226.575 123.579C226.853 123.525 227.036 123.104 226.948 122.649C226.86 122.195 226.548 121.876 226.269 121.971C225.991 122.066 225.801 122.405 225.896 122.86Z" fill="#263238"/>
<path d="M226.141 121.984L227.172 121.455C227.172 121.455 226.778 122.419 226.141 121.984Z" fill="#263238"/>
<path d="M224.689 123.911C225.299 124.864 226.036 125.729 226.88 126.483C226.681 126.694 226.438 126.859 226.169 126.967C225.899 127.075 225.609 127.123 225.32 127.107L224.689 123.911Z" fill="#892B29"/>
<path d="M223.223 129.271C222.268 129.284 221.343 128.932 220.638 128.287C220.618 128.265 220.607 128.236 220.607 128.206C220.607 128.176 220.618 128.147 220.638 128.125C220.66 128.103 220.689 128.091 220.719 128.091C220.75 128.091 220.779 128.103 220.801 128.125C221.236 128.505 221.754 128.779 222.313 128.924C222.873 129.069 223.459 129.081 224.024 128.959C224.053 128.953 224.084 128.959 224.11 128.975C224.135 128.992 224.153 129.018 224.159 129.047C224.162 129.062 224.162 129.076 224.159 129.091C224.157 129.105 224.151 129.118 224.143 129.13C224.134 129.143 224.124 129.153 224.112 129.161C224.099 129.168 224.086 129.174 224.071 129.176C223.792 129.236 223.508 129.268 223.223 129.271V129.271Z" fill="#263238"/>
<path d="M218.243 121.007C218.205 121.016 218.166 121.016 218.128 121.007C218.077 120.975 218.041 120.925 218.027 120.866C218.013 120.808 218.022 120.747 218.053 120.695C218.261 120.328 218.555 120.015 218.909 119.785C219.263 119.555 219.668 119.413 220.088 119.372C220.147 119.372 220.204 119.395 220.247 119.435C220.29 119.475 220.316 119.531 220.319 119.589C220.32 119.619 220.315 119.648 220.305 119.676C220.294 119.703 220.279 119.728 220.258 119.75C220.238 119.771 220.214 119.788 220.187 119.8C220.16 119.812 220.131 119.819 220.102 119.82C219.755 119.86 219.423 119.98 219.132 120.173C218.841 120.365 218.599 120.623 218.426 120.926C218.404 120.953 218.376 120.975 218.344 120.989C218.313 121.003 218.278 121.009 218.243 121.007Z" fill="#263238"/>
<path d="M227.877 120.207C227.842 120.216 227.805 120.216 227.769 120.207C227.465 120.022 227.122 119.914 226.767 119.892C226.413 119.869 226.058 119.933 225.733 120.078C225.68 120.105 225.619 120.11 225.562 120.092C225.505 120.074 225.457 120.035 225.428 119.983C225.401 119.93 225.396 119.868 225.414 119.811C225.432 119.754 225.471 119.706 225.523 119.678C225.909 119.503 226.331 119.424 226.754 119.448C227.177 119.472 227.588 119.597 227.952 119.813C227.978 119.827 228.001 119.847 228.019 119.87C228.038 119.893 228.052 119.919 228.06 119.948C228.068 119.976 228.07 120.006 228.067 120.035C228.064 120.064 228.055 120.093 228.04 120.119C228.021 120.144 227.997 120.166 227.969 120.181C227.941 120.196 227.909 120.205 227.877 120.207Z" fill="#263238"/>
<path d="M204.768 149.877C203.825 151.759 202.779 153.586 201.634 155.352C200.494 157.103 199.286 158.799 197.99 160.448C196.678 162.093 195.269 163.659 193.77 165.136C193.003 165.869 192.237 166.602 191.409 167.28L190.798 167.803C190.512 168.038 190.208 168.251 189.889 168.44C189.107 168.901 188.212 169.136 187.304 169.119C186.38 169.08 185.489 168.766 184.746 168.216C184.171 167.798 183.663 167.295 183.24 166.724C182.547 165.776 181.971 164.749 181.523 163.664C180.714 161.703 180.076 159.676 179.617 157.605C178.714 153.599 178.117 149.53 177.832 145.433L180.227 145.134C180.614 147.061 181.028 149.029 181.51 150.956C181.991 152.883 182.48 154.803 183.07 156.662C183.62 158.49 184.3 160.277 185.106 162.008C185.473 162.771 185.928 163.489 186.463 164.145C186.658 164.375 186.887 164.574 187.141 164.736C187.331 164.844 187.392 164.824 187.399 164.81C187.497 164.781 187.588 164.735 187.67 164.675C187.759 164.614 187.867 164.525 187.982 164.43L188.498 163.942C189.177 163.311 189.855 162.619 190.534 161.906C191.836 160.502 193.044 158.996 194.225 157.469C195.405 155.943 196.484 154.314 197.515 152.665C198.038 151.851 198.54 151.017 199.035 150.175C199.53 149.334 199.998 148.466 200.392 147.679L204.768 149.877Z" fill="#9F5B53"/>
<path d="M181.293 145.969L180.689 140.887L175.654 144.13C175.654 144.13 177.303 146.844 179.583 147.577L181.293 145.969Z" fill="#9F5B53"/>
<path d="M178.823 138.824L175.532 141.932L175.654 144.13L180.689 140.887L178.823 138.824Z" fill="#9F5B53"/>
<path d="M203.004 141.572C200.161 142.081 196.179 150.236 196.179 150.236L203.35 156.716C203.35 156.716 209.049 150.501 208.744 146.797C208.486 143.648 206.627 140.934 203.004 141.572Z" fill="#6278F2"/>
<path opacity="0.3" d="M203.004 141.572C200.161 142.081 196.179 150.236 196.179 150.236L203.35 156.716C203.35 156.716 209.049 150.501 208.744 146.797C208.486 143.648 206.627 140.934 203.004 141.572Z" fill="black"/>
<path d="M174.44 280.662C174.366 280.662 174.292 280.648 174.223 280.621C173.544 280.397 173.096 279.135 172.866 278.403C172.862 278.382 172.864 278.36 172.871 278.339C172.878 278.319 172.89 278.301 172.906 278.287C172.925 278.276 172.946 278.27 172.968 278.27C172.989 278.27 173.01 278.276 173.029 278.287C173.239 278.396 175.064 279.366 175.112 280.085C175.119 280.163 175.105 280.241 175.071 280.311C175.038 280.382 174.986 280.442 174.922 280.486C174.784 280.595 174.615 280.657 174.44 280.662V280.662ZM173.185 278.627C173.497 279.631 173.904 280.302 174.291 280.431C174.379 280.456 174.473 280.459 174.563 280.439C174.653 280.419 174.737 280.376 174.806 280.316C174.84 280.295 174.868 280.264 174.886 280.229C174.904 280.193 174.912 280.152 174.908 280.112C174.874 279.651 173.809 278.959 173.185 278.606V278.627Z" fill="#6278F2"/>
<path d="M174.725 278.891C174.106 278.888 173.496 278.744 172.94 278.47C172.924 278.461 172.91 278.447 172.9 278.43C172.891 278.414 172.886 278.395 172.886 278.375C172.886 278.355 172.891 278.335 172.901 278.318C172.91 278.3 172.924 278.285 172.94 278.274C173.002 278.24 174.44 277.453 175.213 277.724C175.311 277.755 175.4 277.808 175.474 277.879C175.548 277.949 175.605 278.035 175.641 278.131C175.688 278.222 175.704 278.326 175.685 278.427C175.667 278.527 175.615 278.619 175.539 278.688C175.296 278.84 175.011 278.911 174.725 278.891ZM173.246 278.375C173.863 278.64 175.057 278.803 175.39 278.511C175.444 278.464 175.505 278.389 175.43 278.213C175.406 278.148 175.367 278.09 175.316 278.043C175.266 277.996 175.205 277.961 175.139 277.941C174.616 277.738 173.653 278.172 173.246 278.375Z" fill="#6278F2"/>
<path d="M212.232 295.019C211.605 295.004 210.982 294.924 210.373 294.781C210.35 294.777 210.329 294.765 210.313 294.748C210.297 294.731 210.287 294.709 210.284 294.686C210.282 294.663 210.286 294.64 210.297 294.619C210.308 294.598 210.325 294.582 210.345 294.571C210.63 294.435 213.1 293.302 213.738 293.716C213.794 293.755 213.838 293.808 213.867 293.87C213.895 293.932 213.907 294.001 213.901 294.069C213.895 294.194 213.862 294.316 213.804 294.426C213.745 294.537 213.662 294.632 213.561 294.707C213.161 294.946 212.697 295.055 212.232 295.019V295.019ZM210.759 294.632C211.492 294.768 212.849 294.944 213.405 294.523C213.48 294.47 213.542 294.4 213.584 294.319C213.627 294.237 213.649 294.147 213.65 294.055C213.65 293.96 213.65 293.926 213.589 293.906C213.243 293.668 211.757 294.177 210.759 294.632V294.632Z" fill="#6278F2"/>
<path d="M210.4 294.788C210.375 294.795 210.349 294.795 210.325 294.788C210.309 294.774 210.296 294.756 210.289 294.736C210.282 294.715 210.28 294.694 210.284 294.673C210.284 294.571 210.888 292.128 212.211 292.291C212.544 292.332 212.639 292.501 212.652 292.63C212.74 293.255 211.18 294.503 210.44 294.801L210.4 294.788ZM212.089 292.481C211.234 292.481 210.732 293.899 210.569 294.469C211.37 294.048 212.483 293.031 212.428 292.637C212.428 292.637 212.428 292.515 212.184 292.488L212.089 292.481Z" fill="#6278F2"/>
<path d="M221.018 122.995L222.042 122.466C222.042 122.466 221.649 123.43 221.018 122.995Z" fill="#263238"/>
<path d="M79.1329 124.4C85.1479 118.368 92.296 113.584 100.166 110.324C108.036 107.063 116.473 105.391 124.992 105.402H134.172C134.172 105.402 177.479 116.74 177.479 163.135C177.479 208.485 147.497 248.624 134.179 261.963H125.005L79.1329 216.09C66.9809 203.928 60.1549 187.438 60.1549 170.245C60.1549 153.052 66.9809 136.562 79.1329 124.4V124.4ZM124.999 200.39C130.954 200.39 136.776 198.624 141.728 195.315C146.68 192.006 150.54 187.303 152.818 181.8C155.097 176.298 155.693 170.243 154.531 164.402C153.368 158.561 150.5 153.196 146.288 148.985C142.076 144.774 136.71 141.907 130.869 140.746C125.027 139.584 118.973 140.182 113.471 142.462C107.969 144.742 103.267 148.602 99.9587 153.555C96.6509 158.508 94.886 164.33 94.8874 170.286C94.9035 178.261 98.0831 185.904 103.728 191.538C109.374 197.172 117.023 200.336 124.999 200.336V200.39Z" fill="#263238"/>
<path d="M181.225 123.172C178.539 120.489 175.634 118.036 172.54 115.837L172.927 115.281C176.056 117.503 178.993 119.983 181.706 122.697L181.225 123.172ZM168.483 113.184C166.888 112.221 165.233 111.312 163.571 110.47L163.869 109.86C165.552 110.694 167.221 111.61 168.836 112.574L168.483 113.184Z" fill="#EB7272"/>
<path opacity="0.2" d="M181.225 123.172C178.539 120.489 175.634 118.036 172.54 115.837L172.927 115.281C176.056 117.503 178.993 119.983 181.706 122.697L181.225 123.172ZM168.483 113.184C166.888 112.221 165.233 111.312 163.571 110.47L163.869 109.86C165.552 110.694 167.221 111.61 168.836 112.574L168.483 113.184Z" fill="black"/>
<path d="M88.3061 124.4C100.543 112.618 116.913 106.108 133.899 106.268C150.885 106.428 167.13 113.245 179.143 125.254C191.156 137.264 197.978 153.507 198.142 170.492C198.307 187.478 191.802 203.85 180.024 216.09L134.179 261.942L88.3061 216.07C76.1569 203.91 69.3325 187.424 69.3325 170.235C69.3325 153.046 76.1569 136.56 88.3061 124.4V124.4ZM134.172 200.39C140.127 200.39 145.949 198.624 150.901 195.315C155.853 192.006 159.713 187.303 161.992 181.801C164.27 176.298 164.866 170.243 163.704 164.402C162.541 158.561 159.673 153.196 155.461 148.985C151.249 144.774 145.883 141.907 140.042 140.746C134.201 139.584 128.146 140.182 122.644 142.462C117.142 144.742 112.44 148.602 109.132 153.555C105.824 158.508 104.059 164.33 104.061 170.286C104.077 178.261 107.256 185.904 112.901 191.538C118.547 197.172 126.196 200.336 134.172 200.336V200.39Z" fill="#EB7272"/>
<path opacity="0.2" d="M88.3061 124.4C100.543 112.618 116.913 106.108 133.899 106.268C150.885 106.428 167.13 113.245 179.143 125.254C191.156 137.264 197.978 153.507 198.142 170.492C198.307 187.478 191.802 203.85 180.024 216.09L134.179 261.942L88.3061 216.07C76.1569 203.91 69.3325 187.424 69.3325 170.235C69.3325 153.046 76.1569 136.56 88.3061 124.4V124.4ZM134.172 200.39C140.127 200.39 145.949 198.624 150.901 195.315C155.853 192.006 159.713 187.303 161.992 181.801C164.27 176.298 164.866 170.243 163.704 164.402C162.541 158.561 159.673 153.196 155.461 148.985C151.249 144.774 145.883 141.907 140.042 140.746C134.201 139.584 128.146 140.182 122.644 142.462C117.142 144.742 112.44 148.602 109.132 153.555C105.824 158.508 104.059 164.33 104.061 170.286C104.077 178.261 107.256 185.904 112.901 191.538C118.547 197.172 126.196 200.336 134.172 200.336V200.39Z" fill="black"/>
<g style="mix-blend-mode:color-dodge" opacity="0.4">
<path d="M134.179 258.272C134.156 258.272 134.133 258.267 134.112 258.257C134.091 258.248 134.072 258.234 134.056 258.218L90.104 214.272C81.394 205.558 75.4632 194.458 73.0615 182.374C70.6598 170.29 71.895 157.765 76.611 146.383C81.327 135.001 89.312 125.273 99.5564 118.428C109.801 111.584 121.845 107.931 134.165 107.931C146.485 107.931 158.529 111.584 168.773 118.428C179.018 125.273 187.003 135.001 191.719 146.383C196.435 157.765 197.67 170.29 195.268 182.374C192.867 194.458 186.936 205.558 178.226 214.272L134.294 258.197C134.282 258.218 134.265 258.235 134.245 258.248C134.225 258.261 134.202 258.269 134.179 258.272V258.272ZM134.179 108.265C121.925 108.267 109.948 111.903 99.7604 118.711C89.573 125.52 81.6332 135.197 76.9448 146.518C72.2565 157.838 71.03 170.295 73.4206 182.313C75.8112 194.331 81.7115 205.37 90.3754 214.035L134.206 257.858L178.015 214.055L178.131 214.17L178.015 214.055C186.679 205.385 192.577 194.342 194.965 182.321C197.353 170.3 196.123 157.841 191.431 146.518C186.739 135.196 178.796 125.519 168.606 118.71C158.415 111.901 146.434 108.266 134.179 108.265V108.265ZM134.179 203.253C127.652 203.253 121.273 201.318 115.847 197.692C110.421 194.066 106.192 188.913 103.695 182.884C101.198 176.854 100.545 170.22 101.818 163.819C103.092 157.419 106.235 151.54 110.85 146.925C115.465 142.311 121.345 139.169 127.746 137.897C134.147 136.625 140.781 137.279 146.81 139.777C152.839 142.276 157.991 146.506 161.616 151.933C165.241 157.359 167.175 163.739 167.173 170.265C167.154 179.008 163.669 187.385 157.483 193.562C151.297 199.74 142.914 203.212 134.172 203.219L134.179 203.253ZM134.179 137.61C127.72 137.61 121.406 139.525 116.036 143.113C110.666 146.702 106.48 151.802 104.009 157.769C101.537 163.736 100.89 170.302 102.15 176.636C103.41 182.971 106.521 188.789 111.088 193.356C115.655 197.923 121.473 201.033 127.808 202.293C134.142 203.553 140.708 202.907 146.675 200.435C152.642 197.964 157.742 193.778 161.331 188.408C164.919 183.038 166.834 176.724 166.834 170.265C166.834 161.6 163.394 153.29 157.269 147.16C151.145 141.03 142.837 137.583 134.172 137.576L134.179 137.61Z" fill="#FAFAFA"/>
</g>
</g>
<rect x="5.5" y="1.5" width="332" height="332" rx="166" stroke="#FCFBFB" stroke-width="3"/>
</g>
<defs>
<filter id="filter0_d_1_2649" x="0" y="0" width="343" height="343" filterUnits="userSpaceOnUse" color-interpolation-filters="sRGB">
<feFlood flood-opacity="0" result="BackgroundImageFix"/>
<feColorMatrix in="SourceAlpha" type="matrix" values="0 0 0 0 0 0 0 0 0 0 0 0 0 0 0 0 0 0 127 0" result="hardAlpha"/>
<feOffset dy="4"/>
<feGaussianBlur stdDeviation="2"/>
<feComposite in2="hardAlpha" operator="out"/>
<feColorMatrix type="matrix" values="0 0 0 0 0 0 0 0 0 0 0 0 0 0 0 0 0 0 0.1 0"/>
<feBlend mode="normal" in2="BackgroundImageFix" result="effect1_dropShadow_1_2649"/>
<feBlend mode="normal" in="SourceGraphic" in2="effect1_dropShadow_1_2649" result="shape"/>
</filter>
<clipPath id="clip0_1_2649">
<rect x="7" y="3" width="329" height="329" rx="164.5" fill="white"/>
</clipPath>
</defs>
</svg>
